<svg id="svg" version="1.1" xmlns="http://www.w3.org/2000/svg" xmlns:xlink="http://www.w3.org/1999/xlink" width="400" height="400" viewBox="0, 0, 400,400"><g id="svgg"><path id="path0" d="M111.800 24.649 C 93.664 26.121,91.826 28.330,91.316 49.266 L 91.105 57.932 92.038 58.066 C 92.552 58.140,89.288 58.245,84.786 58.300 C 66.731 58.522,61.820 60.375,59.984 67.658 C 58.175 74.833,58.284 66.393,58.116 211.600 C 57.953 352.674,57.996 357.151,59.598 364.442 C 61.136 371.448,63.135 373.131,72.000 374.885 C 75.825 375.642,291.375 375.642,295.200 374.885 C 304.076 373.129,306.056 371.457,307.619 364.400 C 308.559 360.152,309.470 345.201,308.934 342.800 C 308.733 341.897,308.527 344.666,308.354 350.600 C 307.826 368.778,305.895 372.187,294.957 374.253 C 288.788 375.418,78.412 375.418,72.243 374.253 C 63.720 372.643,61.865 370.923,59.682 362.600 C 58.715 358.915,58.451 80.052,59.408 73.464 C 60.785 63.984,62.786 61.586,70.800 59.802 C 74.548 58.967,92.685 58.415,92.232 59.149 C 92.065 59.418,92.234 59.600,92.648 59.600 C 93.940 59.600,95.995 60.555,96.219 61.260 C 96.341 61.645,97.107 62.369,97.921 62.869 C 100.151 64.240,101.729 66.500,102.726 69.749 C 102.869 70.217,103.080 125.860,103.193 193.400 C 103.416 325.522,103.296 317.874,105.181 320.795 C 105.954 321.993,112.631 328.492,113.615 329.004 C 116.595 330.555,116.069 330.546,205.800 330.653 C 253.540 330.710,293.802 330.845,295.270 330.952 C 298.403 331.182,301.921 332.683,303.047 334.269 C 303.461 334.853,304.745 336.264,305.900 337.405 C 307.055 338.546,307.997 339.642,307.994 339.840 C 307.991 340.038,307.813 339.930,307.600 339.600 C 307.387 339.270,307.212 339.180,307.212 339.400 C 307.212 340.739,307.929 340.930,312.864 340.906 C 315.579 340.892,317.350 340.991,316.800 341.124 C 315.997 341.319,316.195 341.422,317.800 341.646 C 318.900 341.799,317.415 341.831,314.500 341.718 C 309.618 341.527,309.200 341.567,309.200 342.219 C 309.200 343.782,329.748 342.333,334.882 340.408 C 338.917 338.895,340.400 336.535,341.745 329.480 L 342.600 325.000 342.600 219.600 C 342.600 135.292,342.497 113.640,342.084 111.400 C 340.939 105.181,339.648 103.110,335.826 101.360 C 333.977 100.514,333.593 100.114,332.457 97.853 C 330.932 94.820,330.203 94.100,327.486 92.952 C 325.666 92.182,325.286 91.799,324.117 89.557 C 322.639 86.722,321.400 85.539,318.873 84.548 C 317.426 83.980,316.962 83.506,316.009 81.618 C 314.598 78.823,312.784 77.013,310.532 76.153 C 309.134 75.619,308.632 75.138,307.911 73.646 C 307.163 72.096,305.136 68.984,305.666 70.200 C 307.782 75.052,308.346 75.777,311.061 77.142 C 312.724 77.978,315.200 80.561,315.200 81.460 C 315.200 82.367,317.309 84.442,319.212 85.406 C 321.078 86.352,323.600 88.911,323.600 89.860 C 323.600 90.753,325.612 92.734,327.395 93.598 C 329.270 94.505,330.435 95.731,332.523 98.996 C 333.373 100.325,334.401 101.304,335.600 101.926 C 340.233 104.331,343.250 112.679,340.903 116.600 C 340.445 117.366,340.423 117.357,340.400 116.400 C 340.379 115.519,340.327 115.484,339.963 116.108 C 339.736 116.498,339.364 116.701,339.136 116.560 C 338.901 116.415,338.936 116.717,339.214 117.252 C 339.931 118.626,340.134 118.738,339.848 117.600 C 339.599 116.614,339.602 116.613,340.061 117.504 C 340.603 118.559,340.262 119.115,339.473 118.460 C 339.172 118.211,338.808 118.125,338.663 118.270 C 338.518 118.415,338.400 118.323,338.400 118.067 C 338.400 117.810,338.209 117.600,337.976 117.600 C 337.743 117.600,337.682 117.808,337.839 118.063 C 338.043 118.393,337.848 118.439,337.163 118.224 C 335.784 117.792,328.885 118.053,328.050 118.569 C 327.854 118.690,327.087 118.879,326.347 118.989 C 325.606 119.098,323.920 119.354,322.600 119.557 C 319.342 120.060,270.027 120.113,264.939 119.620 C 256.468 118.799,250.770 114.554,248.302 107.225 C 247.104 103.671,246.746 48.467,247.881 42.400 C 248.231 40.530,248.535 37.245,248.558 35.100 C 248.581 32.956,248.710 31.201,248.845 31.200 C 248.979 31.200,248.998 30.723,248.887 30.141 C 248.747 29.409,248.826 29.169,249.142 29.364 C 249.805 29.774,249.704 29.247,248.982 28.525 C 248.048 27.590,248.444 27.107,250.828 26.275 C 256.201 24.399,262.782 26.759,265.117 31.400 C 266.086 33.326,267.245 34.431,269.461 35.543 C 271.124 36.377,273.600 38.960,273.600 39.860 C 273.600 40.753,275.612 42.734,277.395 43.598 C 279.270 44.505,280.435 45.731,282.523 48.996 C 283.373 50.324,284.403 51.305,285.600 51.928 C 288.001 53.176,289.097 54.242,290.196 56.400 C 290.701 57.390,291.448 58.493,291.857 58.851 C 292.774 59.654,296.798 61.440,296.088 60.729 C 295.807 60.447,294.817 59.923,293.888 59.565 C 292.451 59.010,292.015 58.547,290.953 56.450 C 289.500 53.577,288.547 52.639,285.770 51.349 C 283.990 50.522,283.580 50.089,282.457 47.853 C 280.930 44.815,280.203 44.100,277.468 42.946 C 275.728 42.211,275.248 41.766,274.439 40.136 C 273.910 39.071,273.325 38.140,273.139 38.067 C 272.953 37.993,272.800 37.760,272.800 37.547 C 272.800 36.878,270.667 35.248,268.873 34.546 C 267.427 33.981,266.962 33.507,266.017 31.634 C 263.981 27.600,262.256 26.411,256.800 25.280 C 254.063 24.712,118.293 24.122,111.800 24.649 M248.800 25.543 C 247.400 25.654,247.178 25.759,247.800 26.015 C 248.240 26.196,218.720 26.332,182.200 26.317 C 145.680 26.303,116.250 26.188,116.800 26.062 C 117.562 25.887,117.324 25.781,115.800 25.616 C 114.700 25.497,144.580 25.400,182.200 25.400 C 219.820 25.400,249.790 25.464,248.800 25.543 M110.800 26.400 C 110.800 26.620,110.530 26.800,110.200 26.800 C 109.870 26.800,109.600 26.620,109.600 26.400 C 109.600 26.180,109.870 26.000,110.200 26.000 C 110.530 26.000,110.800 26.180,110.800 26.400 M93.200 45.776 C 93.200 46.093,93.020 46.464,92.800 46.600 C 92.580 46.736,92.400 46.477,92.400 46.024 C 92.400 45.571,92.580 45.200,92.800 45.200 C 93.020 45.200,93.200 45.459,93.200 45.776 M341.800 219.100 C 341.800 275.365,341.704 320.140,341.587 318.600 C 341.416 316.352,341.330 316.076,341.151 317.200 C 341.028 317.970,340.902 273.510,340.870 218.400 C 340.833 153.586,340.949 118.412,341.200 118.800 C 341.494 119.255,341.589 119.086,341.594 118.100 C 341.597 117.385,341.645 116.800,341.700 116.800 C 341.755 116.800,341.800 162.835,341.800 219.100 M340.840 323.885 C 340.456 324.545,340.423 324.536,340.412 323.767 C 340.399 322.841,340.906 322.119,341.120 322.760 C 341.195 322.985,341.069 323.492,340.840 323.885 M335.407 336.794 C 335.915 336.372,335.934 336.470,335.631 337.949 C 335.557 338.306,334.403 337.057,334.432 336.651 C 334.450 336.383,334.547 336.410,334.670 336.717 C 334.823 337.098,335.017 337.118,335.407 336.794 M324.000 340.800 C 324.000 341.020,323.730 341.200,323.400 341.200 C 323.070 341.200,322.800 341.020,322.800 340.800 C 322.800 340.580,323.070 340.400,323.400 340.400 C 323.730 340.400,324.000 340.580,324.000 340.800 " stroke="none" fill="#54e4fc" fill-rule="evenodd"></path><path id="path1" d="M249.500 24.689 C 250.215 24.778,251.385 24.778,252.100 24.689 C 252.815 24.601,252.230 24.528,250.800 24.528 C 249.370 24.528,248.785 24.601,249.500 24.689 M257.000 25.385 C 262.132 26.324,263.985 27.609,266.017 31.634 C 266.962 33.507,267.427 33.981,268.873 34.546 C 270.667 35.248,272.800 36.878,272.800 37.547 C 272.800 37.760,272.953 37.993,273.139 38.067 C 273.325 38.140,273.910 39.071,274.439 40.136 C 275.248 41.766,275.728 42.211,277.468 42.946 C 280.203 44.100,280.930 44.815,282.457 47.853 C 283.580 50.089,283.990 50.522,285.770 51.349 C 288.547 52.639,289.500 53.577,290.953 56.450 C 292.015 58.547,292.451 59.010,293.888 59.565 C 294.817 59.923,295.807 60.447,296.088 60.729 C 296.798 61.440,292.774 59.654,291.857 58.851 C 291.448 58.493,290.701 57.390,290.196 56.400 C 289.097 54.242,288.001 53.176,285.600 51.928 C 284.403 51.305,283.373 50.324,282.523 48.996 C 280.435 45.731,279.270 44.505,277.395 43.598 C 275.612 42.734,273.600 40.753,273.600 39.860 C 273.600 38.960,271.124 36.377,269.461 35.543 C 267.245 34.431,266.086 33.326,265.117 31.400 C 263.315 27.819,260.179 26.075,255.000 25.774 C 253.314 25.677,252.598 25.736,253.200 25.924 C 254.346 26.281,254.606 27.904,253.637 28.648 C 253.189 28.992,253.075 29.932,253.146 32.702 C 253.222 35.650,253.018 37.130,252.030 40.818 L 250.822 45.329 250.811 72.364 C 250.798 106.392,250.616 105.142,256.409 110.870 C 262.224 116.620,261.169 116.474,295.800 116.320 L 322.600 116.200 326.400 114.829 C 329.396 113.747,330.863 113.446,333.330 113.403 C 335.547 113.365,336.579 113.182,336.868 112.775 C 337.203 112.303,337.238 112.319,337.063 112.867 C 336.946 113.234,337.080 113.622,337.362 113.730 C 338.074 114.003,338.960 113.383,338.628 112.845 C 338.476 112.600,338.543 112.400,338.776 112.400 C 339.009 112.400,339.203 112.625,339.206 112.900 C 339.210 113.233,339.342 113.200,339.600 112.800 C 339.945 112.267,339.989 112.267,340.000 112.800 C 340.011 113.324,340.059 113.326,340.383 112.813 C 340.620 112.439,340.595 112.035,340.314 111.696 C 339.993 111.309,339.999 111.041,340.337 110.703 C 340.688 110.352,340.811 110.381,340.845 110.820 C 340.996 112.777,341.235 114.165,341.455 114.367 C 341.985 114.853,341.139 109.067,340.386 107.053 C 339.490 104.660,338.196 103.274,335.600 101.926 C 334.401 101.304,333.373 100.325,332.523 98.996 C 330.435 95.731,329.270 94.505,327.395 93.598 C 325.612 92.734,323.600 90.753,323.600 89.860 C 323.600 88.911,321.078 86.352,319.212 85.406 C 317.309 84.442,315.200 82.367,315.200 81.460 C 315.200 80.561,312.724 77.978,311.061 77.142 C 308.346 75.777,307.782 75.052,305.666 70.200 C 305.136 68.984,307.163 72.096,307.911 73.646 C 308.632 75.138,309.134 75.619,310.532 76.153 C 312.784 77.013,314.598 78.823,316.009 81.618 C 316.962 83.506,317.426 83.980,318.873 84.548 C 321.400 85.539,322.639 86.722,324.117 89.557 C 325.286 91.799,325.666 92.182,327.486 92.952 C 330.203 94.100,330.932 94.820,332.457 97.853 C 333.588 100.105,333.981 100.516,335.795 101.346 C 339.456 103.022,340.800 104.955,341.803 109.985 C 342.178 111.864,342.335 112.223,342.362 111.262 C 342.482 107.005,340.024 102.724,336.559 101.153 C 334.339 100.146,334.036 99.856,333.217 97.951 C 332.113 95.386,329.916 93.210,327.575 92.366 C 326.040 91.812,325.671 91.432,324.661 89.366 C 323.335 86.651,321.524 84.901,319.124 84.014 C 317.766 83.512,317.258 83.019,316.426 81.392 C 314.464 77.557,314.187 77.306,309.600 75.199 C 309.270 75.047,308.550 73.834,308.000 72.504 C 307.450 71.173,306.751 69.794,306.447 69.438 C 306.143 69.082,305.603 68.263,305.247 67.618 C 303.376 64.226,298.141 60.124,294.286 59.028 C 292.849 58.620,292.452 58.258,291.600 56.575 C 289.833 53.085,289.114 52.311,286.570 51.157 C 284.324 50.139,284.043 49.867,283.221 47.923 C 282.147 45.384,279.779 43.060,277.489 42.296 C 276.041 41.814,275.668 41.429,274.656 39.370 C 273.252 36.515,272.092 35.374,269.377 34.173 C 267.608 33.390,267.184 32.971,266.309 31.133 C 264.259 26.827,260.588 24.692,255.480 24.836 C 254.706 24.858,255.306 25.075,257.000 25.385 M115.100 25.489 C 115.815 25.578,116.985 25.578,117.700 25.489 C 118.415 25.401,117.830 25.328,116.400 25.328 C 114.970 25.328,114.385 25.401,115.100 25.489 M245.437 25.589 C 245.898 25.776,247.248 25.787,248.437 25.614 L 250.600 25.300 247.600 25.275 C 245.591 25.259,244.877 25.363,245.437 25.589 M256.461 26.899 C 256.047 27.313,255.200 26.987,255.200 26.414 C 255.200 26.227,255.572 26.172,256.026 26.291 C 256.566 26.432,256.717 26.643,256.461 26.899 M251.600 26.953 C 251.600 27.308,253.218 27.494,253.423 27.162 C 253.546 26.963,253.187 26.800,252.624 26.800 C 252.061 26.800,251.600 26.869,251.600 26.953 M263.357 30.022 C 264.451 31.322,264.672 32.000,264.000 32.000 C 263.780 32.000,263.621 31.865,263.647 31.700 C 263.780 30.861,263.551 30.383,263.138 30.638 C 262.870 30.804,262.784 30.749,262.934 30.507 C 263.217 30.048,262.265 29.068,261.896 29.438 C 261.769 29.565,261.457 29.279,261.202 28.804 C 260.532 27.553,261.956 28.357,263.357 30.022 M272.320 39.280 C 272.913 39.873,272.940 40.400,272.376 40.400 C 272.143 40.400,272.057 40.231,272.185 40.025 C 272.312 39.818,272.098 39.464,271.708 39.237 C 271.319 39.010,271.189 38.819,271.420 38.812 C 271.651 38.805,272.056 39.016,272.320 39.280 M279.266 45.781 C 279.632 46.231,279.852 46.679,279.756 46.776 C 279.660 46.873,279.303 46.555,278.963 46.069 C 278.623 45.584,278.196 45.279,278.015 45.391 C 277.833 45.503,277.584 45.336,277.462 45.018 C 277.148 44.198,278.416 44.735,279.266 45.781 M287.970 54.561 C 288.503 55.132,288.818 55.600,288.670 55.600 C 288.521 55.600,288.265 55.600,288.100 55.600 C 287.935 55.600,287.797 55.465,287.794 55.300 C 287.781 54.682,287.131 53.995,286.770 54.219 C 286.563 54.346,286.287 54.170,286.155 53.828 C 286.024 53.485,285.755 53.304,285.558 53.426 C 285.361 53.548,285.200 53.446,285.200 53.200 C 285.200 52.954,285.039 52.852,284.842 52.974 C 284.645 53.096,284.380 52.925,284.254 52.596 C 283.922 51.731,286.700 53.201,287.970 54.561 M71.280 58.652 C 64.304 59.729,61.533 61.394,60.030 65.412 C 58.972 68.240,57.919 75.964,58.095 79.600 L 58.241 82.600 58.329 79.200 C 58.646 66.854,61.356 61.452,68.031 59.859 C 72.540 58.783,73.294 58.683,79.000 58.403 L 84.600 58.128 79.800 58.103 C 77.160 58.090,73.326 58.337,71.280 58.652 M74.239 59.256 C 63.492 60.635,60.913 63.105,59.408 73.464 C 58.451 80.052,58.715 358.915,59.682 362.600 C 61.865 370.923,63.720 372.643,72.243 374.253 C 78.412 375.418,288.788 375.418,294.957 374.253 C 303.484 372.643,305.517 370.748,307.461 362.600 C 308.173 359.618,308.685 341.462,308.031 342.400 C 307.665 342.924,307.611 342.918,307.606 342.349 C 307.603 341.991,307.332 341.476,307.004 341.204 C 306.677 340.932,306.507 340.550,306.628 340.355 C 306.749 340.160,306.616 340.000,306.334 340.000 C 306.051 340.000,305.268 339.379,304.593 338.621 C 303.919 337.862,302.204 336.647,300.783 335.921 L 298.200 334.600 211.600 334.508 C 119.509 334.410,114.230 334.313,110.599 332.651 C 107.845 331.390,102.483 326.136,101.279 323.518 C 99.620 319.913,99.607 318.880,99.603 193.258 C 99.600 59.012,99.814 69.631,97.017 64.905 C 96.267 63.637,95.101 62.240,94.428 61.800 C 93.754 61.360,93.202 60.865,93.201 60.700 C 93.201 60.535,92.919 60.400,92.576 60.400 C 92.233 60.400,92.064 60.220,92.200 60.000 C 92.336 59.780,92.122 59.597,91.724 59.594 C 91.110 59.589,91.091 59.529,91.600 59.200 C 92.362 58.707,78.157 58.753,74.239 59.256 M83.700 59.882 C 83.205 59.978,82.395 59.978,81.900 59.882 C 81.405 59.787,81.810 59.709,82.800 59.709 C 83.790 59.709,84.195 59.787,83.700 59.882 M313.040 79.663 C 314.271 81.034,314.469 81.510,313.945 81.834 C 313.665 82.007,313.583 81.951,313.741 81.696 C 314.054 81.189,312.134 78.778,311.522 78.909 C 311.290 78.959,311.012 78.758,310.904 78.461 C 310.627 77.702,311.947 78.445,313.040 79.663 M59.892 83.091 C 59.805 83.921,59.733 83.340,59.731 81.800 C 59.729 80.260,59.800 79.581,59.889 80.291 C 59.977 81.001,59.979 82.261,59.892 83.091 M322.800 90.014 C 322.800 90.226,322.590 90.400,322.333 90.400 C 322.077 90.400,321.984 90.283,322.127 90.140 C 322.270 89.996,322.075 89.626,321.694 89.317 C 321.071 88.814,321.092 88.801,321.900 89.192 C 322.395 89.432,322.800 89.802,322.800 90.014 M329.266 95.800 C 329.632 96.240,329.852 96.679,329.756 96.776 C 329.660 96.873,329.303 96.555,328.963 96.069 C 328.623 95.584,328.178 95.290,327.973 95.417 C 327.768 95.544,327.600 95.446,327.600 95.200 C 327.600 94.954,327.420 94.864,327.200 95.000 C 326.980 95.136,326.800 95.046,326.800 94.800 C 326.800 94.554,326.639 94.452,326.442 94.574 C 326.245 94.696,325.983 94.533,325.860 94.213 C 325.547 93.396,328.354 94.705,329.266 95.800 M330.856 97.987 C 331.715 98.703,331.731 98.775,331.033 98.787 C 330.612 98.794,330.392 98.674,330.546 98.521 C 330.699 98.367,330.414 98.014,329.913 97.735 C 329.411 97.456,329.205 97.222,329.456 97.214 C 329.706 97.206,330.336 97.554,330.856 97.987 M331.700 99.950 C 331.645 100.198,331.780 100.400,332.000 100.400 C 332.220 100.400,332.400 100.602,332.400 100.849 C 332.400 101.161,332.218 101.147,331.804 100.804 C 331.477 100.532,331.298 100.165,331.407 99.989 C 331.516 99.813,331.419 99.576,331.192 99.464 C 330.966 99.352,331.010 99.314,331.290 99.380 C 331.571 99.446,331.755 99.703,331.700 99.950 M337.970 104.561 C 338.503 105.132,338.818 105.600,338.670 105.600 C 338.521 105.600,338.265 105.600,338.100 105.600 C 337.935 105.600,337.797 105.465,337.794 105.300 C 337.781 104.682,337.131 103.995,336.770 104.219 C 336.563 104.346,336.287 104.170,336.155 103.828 C 336.024 103.485,335.755 103.304,335.558 103.426 C 335.361 103.548,335.200 103.446,335.200 103.200 C 335.200 102.954,335.039 102.852,334.842 102.974 C 334.645 103.096,334.380 102.925,334.254 102.596 C 333.922 101.731,336.700 103.201,337.970 104.561 M340.430 109.310 C 340.381 109.788,339.832 109.696,339.660 109.180 C 339.572 108.916,339.716 108.772,339.980 108.860 C 340.244 108.948,340.447 109.151,340.430 109.310 M342.534 116.000 C 342.534 117.650,342.605 118.325,342.691 117.500 C 342.778 116.675,342.778 115.325,342.691 114.500 C 342.605 113.675,342.534 114.350,342.534 116.000 M341.528 118.169 C 341.440 118.922,341.497 119.867,341.656 120.269 C 341.833 120.718,341.955 120.191,341.972 118.900 C 342.004 116.516,341.766 116.125,341.528 118.169 M341.742 317.800 C 341.741 319.780,341.808 320.640,341.892 319.712 C 341.976 318.784,341.977 317.164,341.895 316.112 C 341.812 315.060,341.743 315.820,341.742 317.800 M315.491 341.889 C 316.201 341.977,317.461 341.979,318.291 341.892 C 319.121 341.805,318.540 341.733,317.000 341.731 C 315.460 341.729,314.781 341.800,315.491 341.889 M308.745 354.600 C 308.204 367.309,305.788 372.436,299.641 373.925 C 293.415 375.433,296.005 375.400,183.600 375.400 C 71.195 375.400,73.785 375.433,67.559 373.925 C 61.713 372.509,59.290 367.767,58.399 356.000 L 58.050 351.400 58.242 356.400 C 58.707 368.544,60.821 372.717,67.353 374.388 C 73.591 375.983,74.786 376.000,183.600 376.000 C 292.414 376.000,293.609 375.983,299.847 374.388 C 304.197 373.275,305.853 371.707,307.643 367.000 C 308.370 365.090,309.243 356.723,309.126 352.800 L 309.000 348.600 308.745 354.600 M59.889 353.300 C 59.801 354.015,59.728 353.430,59.728 352.000 C 59.728 350.570,59.801 349.985,59.889 350.700 C 59.978 351.415,59.978 352.585,59.889 353.300 M307.489 353.300 C 307.401 354.015,307.328 353.430,307.328 352.000 C 307.328 350.570,307.401 349.985,307.489 350.700 C 307.578 351.415,307.578 352.585,307.489 353.300 M231.700 374.300 C 205.245 374.357,161.955 374.357,135.500 374.300 C 109.045 374.243,130.690 374.197,183.600 374.197 C 236.510 374.197,258.155 374.243,231.700 374.300 " stroke="none" fill="#1e93da" fill-rule="evenodd"></path><path id="path2" d="M116.800 26.000 C 116.250 26.176,145.680 26.317,182.200 26.314 C 218.720 26.311,247.880 26.159,247.000 25.977 C 244.944 25.552,118.130 25.574,116.800 26.000 M109.600 26.400 C 109.600 26.620,109.870 26.800,110.200 26.800 C 110.530 26.800,110.800 26.620,110.800 26.400 C 110.800 26.180,110.530 26.000,110.200 26.000 C 109.870 26.000,109.600 26.180,109.600 26.400 M249.700 26.634 C 248.256 27.265,248.113 27.656,249.000 28.543 C 249.708 29.250,249.797 29.769,249.142 29.364 C 248.826 29.169,248.747 29.409,248.887 30.141 C 248.998 30.723,248.979 31.200,248.845 31.200 C 248.710 31.201,248.581 32.956,248.558 35.100 C 248.535 37.245,248.231 40.530,247.881 42.400 C 246.746 48.467,247.104 103.671,248.302 107.225 C 250.770 114.554,256.468 118.799,264.939 119.620 C 270.027 120.113,319.342 120.060,322.600 119.557 C 323.920 119.354,325.606 119.098,326.347 118.989 C 327.087 118.879,327.854 118.690,328.050 118.569 C 328.885 118.053,335.784 117.792,337.163 118.224 C 337.848 118.439,338.043 118.393,337.839 118.063 C 337.682 117.808,337.743 117.600,337.976 117.600 C 338.209 117.600,338.400 117.810,338.400 118.067 C 338.400 118.323,338.518 118.415,338.663 118.270 C 338.808 118.125,339.172 118.211,339.473 118.460 C 340.262 119.115,340.603 118.559,340.061 117.504 C 339.602 116.613,339.599 116.614,339.848 117.600 C 340.132 118.728,339.931 118.627,339.237 117.294 C 338.863 116.575,338.872 116.410,339.283 116.494 C 339.648 116.569,339.825 115.954,339.885 114.401 C 339.943 112.891,339.851 112.390,339.591 112.801 C 339.339 113.200,339.210 113.233,339.206 112.900 C 339.203 112.625,339.009 112.400,338.776 112.400 C 338.543 112.400,338.476 112.600,338.628 112.845 C 338.960 113.383,338.074 114.003,337.362 113.730 C 337.080 113.622,336.946 113.234,337.063 112.867 C 337.238 112.319,337.203 112.303,336.868 112.775 C 336.579 113.182,335.547 113.365,333.330 113.403 C 330.863 113.446,329.396 113.747,326.400 114.829 L 322.600 116.200 295.800 116.320 C 261.169 116.474,262.224 116.620,256.409 110.870 C 250.616 105.142,250.798 106.392,250.811 72.364 L 250.822 45.329 252.030 40.818 C 253.018 37.130,253.222 35.650,253.146 32.702 C 253.076 29.963,253.192 28.988,253.627 28.647 C 254.477 27.980,254.526 27.136,253.709 27.219 C 252.194 27.375,249.880 27.186,250.138 26.929 C 250.287 26.780,251.324 26.699,252.441 26.750 C 253.784 26.811,254.385 26.700,254.213 26.421 C 253.849 25.832,251.254 25.954,249.700 26.634 M255.520 26.880 C 255.893 27.253,256.107 27.253,256.480 26.880 C 256.853 26.507,256.747 26.400,256.000 26.400 C 255.253 26.400,255.147 26.507,255.520 26.880 M261.202 28.804 C 261.457 29.279,261.769 29.565,261.896 29.438 C 262.265 29.068,263.217 30.048,262.934 30.507 C 262.784 30.749,262.870 30.804,263.138 30.638 C 263.551 30.383,263.780 30.861,263.647 31.700 C 263.621 31.865,263.780 32.000,264.000 32.000 C 265.020 32.000,263.129 29.218,261.527 28.361 C 260.809 27.977,260.780 28.016,261.202 28.804 M271.708 39.237 C 272.098 39.464,272.312 39.818,272.185 40.025 C 272.057 40.231,272.143 40.400,272.376 40.400 C 272.609 40.400,272.800 40.256,272.800 40.080 C 272.800 39.615,271.910 38.798,271.420 38.812 C 271.189 38.819,271.319 39.010,271.708 39.237 M277.451 44.988 C 277.579 45.322,277.839 45.499,278.029 45.382 C 278.219 45.265,278.603 45.536,278.883 45.984 C 279.163 46.433,279.557 46.800,279.758 46.800 C 280.229 46.800,278.824 45.241,277.913 44.754 C 277.372 44.464,277.269 44.516,277.451 44.988 M92.400 46.024 C 92.400 46.477,92.580 46.736,92.800 46.600 C 93.020 46.464,93.200 46.093,93.200 45.776 C 93.200 45.459,93.020 45.200,92.800 45.200 C 92.580 45.200,92.400 45.571,92.400 46.024 M284.254 52.596 C 284.380 52.925,284.645 53.096,284.842 52.974 C 285.039 52.852,285.200 52.954,285.200 53.200 C 285.200 53.446,285.361 53.548,285.558 53.426 C 285.755 53.304,286.024 53.485,286.155 53.828 C 286.287 54.170,286.563 54.346,286.770 54.219 C 287.131 53.995,287.781 54.682,287.794 55.300 C 287.797 55.465,287.935 55.600,288.100 55.600 C 288.265 55.600,288.521 55.600,288.670 55.600 C 289.268 55.600,286.902 53.472,285.512 52.759 C 284.314 52.145,284.068 52.113,284.254 52.596 M81.900 59.882 C 82.395 59.978,83.205 59.978,83.700 59.882 C 84.195 59.787,83.790 59.709,82.800 59.709 C 81.810 59.709,81.405 59.787,81.900 59.882 M92.200 60.000 C 92.064 60.220,92.233 60.400,92.576 60.400 C 92.919 60.400,93.201 60.535,93.201 60.700 C 93.202 60.865,93.754 61.360,94.428 61.800 C 95.101 62.240,96.267 63.637,97.017 64.905 C 99.814 69.631,99.600 59.012,99.603 193.258 C 99.607 318.880,99.620 319.913,101.279 323.518 C 102.483 326.136,107.845 331.390,110.599 332.651 C 114.230 334.313,119.509 334.410,211.600 334.508 L 298.200 334.600 300.783 335.921 C 302.204 336.647,303.919 337.862,304.593 338.621 C 305.268 339.379,306.051 340.000,306.334 340.000 C 306.616 340.000,306.749 340.160,306.628 340.355 C 306.507 340.550,306.677 340.932,307.004 341.204 C 307.332 341.476,307.615 341.631,307.633 341.549 C 308.012 339.856,307.762 339.269,305.847 337.365 C 304.721 336.246,303.461 334.853,303.047 334.269 C 301.921 332.683,298.403 331.182,295.270 330.952 C 293.802 330.845,253.540 330.710,205.800 330.653 C 116.069 330.546,116.595 330.555,113.615 329.004 C 112.631 328.492,105.954 321.993,105.181 320.795 C 103.296 317.874,103.416 325.522,103.193 193.400 C 103.080 125.860,102.869 70.217,102.726 69.749 C 101.729 66.500,100.151 64.240,97.921 62.869 C 97.107 62.369,96.341 61.645,96.219 61.260 C 95.869 60.158,92.714 59.169,92.200 60.000 M310.904 78.461 C 311.012 78.758,311.290 78.959,311.522 78.909 C 312.134 78.778,314.054 81.189,313.741 81.696 C 313.583 81.951,313.665 82.007,313.945 81.834 C 314.202 81.675,314.293 81.332,314.147 81.072 C 313.280 79.534,310.470 77.271,310.904 78.461 M59.731 81.800 C 59.733 83.340,59.805 83.921,59.892 83.091 C 59.979 82.261,59.977 81.001,59.889 80.291 C 59.800 79.581,59.729 80.260,59.731 81.800 M321.694 89.317 C 322.075 89.626,322.270 89.996,322.127 90.140 C 321.984 90.283,322.077 90.400,322.333 90.400 C 323.120 90.400,322.852 89.653,321.900 89.192 C 321.092 88.801,321.071 88.814,321.694 89.317 M325.854 94.196 C 325.980 94.525,326.245 94.696,326.442 94.574 C 326.639 94.452,326.800 94.554,326.800 94.800 C 326.800 95.046,326.980 95.136,327.200 95.000 C 327.420 94.864,327.600 94.954,327.600 95.200 C 327.600 95.446,327.774 95.540,327.987 95.408 C 328.200 95.277,328.603 95.536,328.883 95.984 C 329.163 96.433,329.557 96.800,329.758 96.800 C 330.432 96.800,328.617 95.124,327.112 94.355 C 325.911 93.743,325.668 93.712,325.854 94.196 M330.094 97.717 C 330.475 98.026,330.670 98.396,330.527 98.540 C 330.384 98.683,330.477 98.800,330.733 98.800 C 331.520 98.800,331.252 98.053,330.300 97.592 C 329.492 97.201,329.471 97.214,330.094 97.717 M331.192 99.464 C 331.419 99.576,331.516 99.813,331.407 99.989 C 331.298 100.165,331.477 100.532,331.804 100.804 C 332.218 101.147,332.400 101.161,332.400 100.849 C 332.400 100.602,332.220 100.400,332.000 100.400 C 331.780 100.400,331.645 100.198,331.700 99.950 C 331.755 99.703,331.571 99.446,331.290 99.380 C 331.010 99.314,330.966 99.352,331.192 99.464 M334.254 102.596 C 334.380 102.925,334.645 103.096,334.842 102.974 C 335.039 102.852,335.200 102.954,335.200 103.200 C 335.200 103.446,335.361 103.548,335.558 103.426 C 335.755 103.304,336.024 103.485,336.155 103.828 C 336.287 104.170,336.563 104.346,336.770 104.219 C 337.131 103.995,337.781 104.682,337.794 105.300 C 337.797 105.465,337.935 105.600,338.100 105.600 C 338.265 105.600,338.521 105.600,338.670 105.600 C 339.268 105.600,336.902 103.472,335.512 102.759 C 334.314 102.145,334.068 102.113,334.254 102.596 M340.178 110.835 C 340.031 111.074,340.110 111.470,340.355 111.715 C 340.682 112.042,340.800 111.926,340.800 111.280 C 340.800 110.314,340.592 110.165,340.178 110.835 M340.406 114.876 C 340.410 116.653,340.527 117.222,340.800 116.800 C 341.311 116.010,341.311 112.916,340.800 112.600 C 340.549 112.445,340.402 113.294,340.406 114.876 M340.874 218.400 C 340.884 273.510,341.041 317.880,341.223 317.000 C 341.664 314.869,341.641 120.027,341.200 119.000 C 341.007 118.551,340.864 162.190,340.874 218.400 M340.692 322.642 C 340.531 322.802,340.405 323.308,340.412 323.767 C 340.423 324.536,340.456 324.545,340.840 323.885 C 341.288 323.116,341.173 322.160,340.692 322.642 M322.800 340.800 C 322.800 341.020,323.070 341.200,323.400 341.200 C 323.730 341.200,324.000 341.020,324.000 340.800 C 324.000 340.580,323.730 340.400,323.400 340.400 C 323.070 340.400,322.800 340.580,322.800 340.800 M308.489 341.423 C 308.000 341.765,307.605 342.260,307.612 342.523 C 307.619 342.785,307.795 342.709,308.003 342.353 C 308.300 341.843,309.135 341.690,311.932 341.634 C 317.406 341.523,318.746 340.876,313.589 340.834 C 310.382 340.808,309.166 340.949,308.489 341.423 M59.728 352.000 C 59.728 353.430,59.801 354.015,59.889 353.300 C 59.978 352.585,59.978 351.415,59.889 350.700 C 59.801 349.985,59.728 350.570,59.728 352.000 M307.328 352.000 C 307.328 353.430,307.401 354.015,307.489 353.300 C 307.578 352.585,307.578 351.415,307.489 350.700 C 307.401 349.985,307.328 350.570,307.328 352.000 M135.500 374.300 C 161.955 374.357,205.245 374.357,231.700 374.300 C 258.155 374.243,236.510 374.197,183.600 374.197 C 130.690 374.197,109.045 374.243,135.500 374.300 " stroke="none" fill="#58c8e4" fill-rule="evenodd"></path><path id="path3" d="M116.800 26.000 C 116.250 26.176,145.680 26.317,182.200 26.314 C 218.720 26.311,247.880 26.159,247.000 25.977 C 244.944 25.552,118.130 25.574,116.800 26.000 M109.600 26.400 C 109.600 26.620,109.870 26.800,110.200 26.800 C 110.530 26.800,110.800 26.620,110.800 26.400 C 110.800 26.180,110.530 26.000,110.200 26.000 C 109.870 26.000,109.600 26.180,109.600 26.400 M249.700 26.634 C 248.256 27.265,248.113 27.656,249.000 28.543 C 249.708 29.250,249.797 29.769,249.142 29.364 C 248.826 29.169,248.747 29.409,248.887 30.141 C 248.998 30.723,248.979 31.200,248.845 31.200 C 248.710 31.201,248.581 32.956,248.558 35.100 C 248.535 37.245,248.231 40.530,247.881 42.400 C 246.746 48.467,247.104 103.671,248.302 107.225 C 250.770 114.554,256.468 118.799,264.939 119.620 C 270.027 120.113,319.342 120.060,322.600 119.557 C 323.920 119.354,325.606 119.098,326.347 118.989 C 327.087 118.879,327.854 118.690,328.050 118.569 C 328.885 118.053,335.784 117.792,337.163 118.224 C 337.848 118.439,338.043 118.393,337.839 118.063 C 337.682 117.808,337.743 117.600,337.976 117.600 C 338.209 117.600,338.400 117.810,338.400 118.067 C 338.400 118.323,338.518 118.415,338.663 118.270 C 338.808 118.125,339.172 118.211,339.473 118.460 C 340.262 119.115,340.603 118.559,340.061 117.504 C 339.602 116.613,339.599 116.614,339.848 117.600 C 340.132 118.728,339.931 118.627,339.237 117.294 C 338.863 116.575,338.872 116.410,339.283 116.494 C 339.648 116.569,339.825 115.954,339.885 114.401 C 339.943 112.891,339.851 112.390,339.591 112.801 C 339.339 113.200,339.210 113.233,339.206 112.900 C 339.203 112.625,339.009 112.400,338.776 112.400 C 338.543 112.400,338.476 112.600,338.628 112.845 C 338.960 113.383,338.074 114.003,337.362 113.730 C 337.080 113.622,336.946 113.234,337.063 112.867 C 337.238 112.319,337.203 112.303,336.868 112.775 C 336.579 113.182,335.547 113.365,333.330 113.403 C 330.863 113.446,329.396 113.747,326.400 114.829 L 322.600 116.200 295.800 116.320 C 261.169 116.474,262.224 116.620,256.409 110.870 C 250.616 105.142,250.798 106.392,250.811 72.364 L 250.822 45.329 252.030 40.818 C 253.018 37.130,253.222 35.650,253.146 32.702 C 253.076 29.963,253.192 28.988,253.627 28.647 C 254.477 27.980,254.526 27.136,253.709 27.219 C 252.194 27.375,249.880 27.186,250.138 26.929 C 250.287 26.780,251.324 26.699,252.441 26.750 C 253.784 26.811,254.385 26.700,254.213 26.421 C 253.849 25.832,251.254 25.954,249.700 26.634 M255.520 26.880 C 255.893 27.253,256.107 27.253,256.480 26.880 C 256.853 26.507,256.747 26.400,256.000 26.400 C 255.253 26.400,255.147 26.507,255.520 26.880 M261.202 28.804 C 261.457 29.279,261.769 29.565,261.896 29.438 C 262.265 29.068,263.217 30.048,262.934 30.507 C 262.784 30.749,262.870 30.804,263.138 30.638 C 263.551 30.383,263.780 30.861,263.647 31.700 C 263.621 31.865,263.780 32.000,264.000 32.000 C 265.020 32.000,263.129 29.218,261.527 28.361 C 260.809 27.977,260.780 28.016,261.202 28.804 M271.708 39.237 C 272.098 39.464,272.312 39.818,272.185 40.025 C 272.057 40.231,272.143 40.400,272.376 40.400 C 272.609 40.400,272.800 40.256,272.800 40.080 C 272.800 39.615,271.910 38.798,271.420 38.812 C 271.189 38.819,271.319 39.010,271.708 39.237 M277.451 44.988 C 277.579 45.322,277.839 45.499,278.029 45.382 C 278.219 45.265,278.603 45.536,278.883 45.984 C 279.163 46.433,279.557 46.800,279.758 46.800 C 280.229 46.800,278.824 45.241,277.913 44.754 C 277.372 44.464,277.269 44.516,277.451 44.988 M92.400 46.024 C 92.400 46.477,92.580 46.736,92.800 46.600 C 93.020 46.464,93.200 46.093,93.200 45.776 C 93.200 45.459,93.020 45.200,92.800 45.200 C 92.580 45.200,92.400 45.571,92.400 46.024 M284.254 52.596 C 284.380 52.925,284.645 53.096,284.842 52.974 C 285.039 52.852,285.200 52.954,285.200 53.200 C 285.200 53.446,285.361 53.548,285.558 53.426 C 285.755 53.304,286.024 53.485,286.155 53.828 C 286.287 54.170,286.563 54.346,286.770 54.219 C 287.131 53.995,287.781 54.682,287.794 55.300 C 287.797 55.465,287.935 55.600,288.100 55.600 C 288.265 55.600,288.521 55.600,288.670 55.600 C 289.268 55.600,286.902 53.472,285.512 52.759 C 284.314 52.145,284.068 52.113,284.254 52.596 M81.900 59.882 C 82.395 59.978,83.205 59.978,83.700 59.882 C 84.195 59.787,83.790 59.709,82.800 59.709 C 81.810 59.709,81.405 59.787,81.900 59.882 M92.200 60.000 C 92.064 60.220,92.233 60.400,92.576 60.400 C 92.919 60.400,93.201 60.535,93.201 60.700 C 93.202 60.865,93.754 61.360,94.428 61.800 C 95.101 62.240,96.267 63.637,97.017 64.905 C 99.814 69.631,99.600 59.012,99.603 193.258 C 99.607 318.880,99.620 319.913,101.279 323.518 C 102.483 326.136,107.845 331.390,110.599 332.651 C 114.230 334.313,119.509 334.410,211.600 334.508 L 298.200 334.600 300.783 335.921 C 302.204 336.647,303.919 337.862,304.593 338.621 C 305.268 339.379,306.051 340.000,306.334 340.000 C 306.616 340.000,306.749 340.160,306.628 340.355 C 306.507 340.550,306.677 340.932,307.004 341.204 C 307.332 341.476,307.615 341.631,307.633 341.549 C 308.012 339.856,307.762 339.269,305.847 337.365 C 304.721 336.246,303.461 334.853,303.047 334.269 C 301.921 332.683,298.403 331.182,295.270 330.952 C 293.802 330.845,253.540 330.710,205.800 330.653 C 116.069 330.546,116.595 330.555,113.615 329.004 C 112.631 328.492,105.954 321.993,105.181 320.795 C 103.296 317.874,103.416 325.522,103.193 193.400 C 103.080 125.860,102.869 70.217,102.726 69.749 C 101.729 66.500,100.151 64.240,97.921 62.869 C 97.107 62.369,96.341 61.645,96.219 61.260 C 95.869 60.158,92.714 59.169,92.200 60.000 M310.904 78.461 C 311.012 78.758,311.290 78.959,311.522 78.909 C 312.134 78.778,314.054 81.189,313.741 81.696 C 313.583 81.951,313.665 82.007,313.945 81.834 C 314.202 81.675,314.293 81.332,314.147 81.072 C 313.280 79.534,310.470 77.271,310.904 78.461 M59.731 81.800 C 59.733 83.340,59.805 83.921,59.892 83.091 C 59.979 82.261,59.977 81.001,59.889 80.291 C 59.800 79.581,59.729 80.260,59.731 81.800 M321.694 89.317 C 322.075 89.626,322.270 89.996,322.127 90.140 C 321.984 90.283,322.077 90.400,322.333 90.400 C 323.120 90.400,322.852 89.653,321.900 89.192 C 321.092 88.801,321.071 88.814,321.694 89.317 M325.854 94.196 C 325.980 94.525,326.245 94.696,326.442 94.574 C 326.639 94.452,326.800 94.554,326.800 94.800 C 326.800 95.046,326.980 95.136,327.200 95.000 C 327.420 94.864,327.600 94.954,327.600 95.200 C 327.600 95.446,327.774 95.540,327.987 95.408 C 328.200 95.277,328.603 95.536,328.883 95.984 C 329.163 96.433,329.557 96.800,329.758 96.800 C 330.432 96.800,328.617 95.124,327.112 94.355 C 325.911 93.743,325.668 93.712,325.854 94.196 M330.094 97.717 C 330.475 98.026,330.670 98.396,330.527 98.540 C 330.384 98.683,330.477 98.800,330.733 98.800 C 331.520 98.800,331.252 98.053,330.300 97.592 C 329.492 97.201,329.471 97.214,330.094 97.717 M331.192 99.464 C 331.419 99.576,331.516 99.813,331.407 99.989 C 331.298 100.165,331.477 100.532,331.804 100.804 C 332.218 101.147,332.400 101.161,332.400 100.849 C 332.400 100.602,332.220 100.400,332.000 100.400 C 331.780 100.400,331.645 100.198,331.700 99.950 C 331.755 99.703,331.571 99.446,331.290 99.380 C 331.010 99.314,330.966 99.352,331.192 99.464 M334.254 102.596 C 334.380 102.925,334.645 103.096,334.842 102.974 C 335.039 102.852,335.200 102.954,335.200 103.200 C 335.200 103.446,335.361 103.548,335.558 103.426 C 335.755 103.304,336.024 103.485,336.155 103.828 C 336.287 104.170,336.563 104.346,336.770 104.219 C 337.131 103.995,337.781 104.682,337.794 105.300 C 337.797 105.465,337.935 105.600,338.100 105.600 C 338.265 105.600,338.521 105.600,338.670 105.600 C 339.268 105.600,336.902 103.472,335.512 102.759 C 334.314 102.145,334.068 102.113,334.254 102.596 M340.178 110.835 C 340.031 111.074,340.110 111.470,340.355 111.715 C 340.682 112.042,340.800 111.926,340.800 111.280 C 340.800 110.314,340.592 110.165,340.178 110.835 M340.406 114.876 C 340.410 116.653,340.527 117.222,340.800 116.800 C 341.311 116.010,341.311 112.916,340.800 112.600 C 340.549 112.445,340.402 113.294,340.406 114.876 M340.874 218.400 C 340.884 273.510,341.041 317.880,341.223 317.000 C 341.664 314.869,341.641 120.027,341.200 119.000 C 341.007 118.551,340.864 162.190,340.874 218.400 M340.692 322.642 C 340.531 322.802,340.405 323.308,340.412 323.767 C 340.423 324.536,340.456 324.545,340.840 323.885 C 341.288 323.116,341.173 322.160,340.692 322.642 M322.800 340.800 C 322.800 341.020,323.070 341.200,323.400 341.200 C 323.730 341.200,324.000 341.020,324.000 340.800 C 324.000 340.580,323.730 340.400,323.400 340.400 C 323.070 340.400,322.800 340.580,322.800 340.800 M308.489 341.423 C 308.000 341.765,307.605 342.260,307.612 342.523 C 307.619 342.785,307.795 342.709,308.003 342.353 C 308.300 341.843,309.135 341.690,311.932 341.634 C 317.406 341.523,318.746 340.876,313.589 340.834 C 310.382 340.808,309.166 340.949,308.489 341.423 M59.728 352.000 C 59.728 353.430,59.801 354.015,59.889 353.300 C 59.978 352.585,59.978 351.415,59.889 350.700 C 59.801 349.985,59.728 350.570,59.728 352.000 M307.328 352.000 C 307.328 353.430,307.401 354.015,307.489 353.300 C 307.578 352.585,307.578 351.415,307.489 350.700 C 307.401 349.985,307.328 350.570,307.328 352.000 M135.500 374.300 C 161.955 374.357,205.245 374.357,231.700 374.300 C 258.155 374.243,236.510 374.197,183.600 374.197 C 130.690 374.197,109.045 374.243,135.500 374.300 " stroke="none" fill="#58c8e4" fill-rule="evenodd"></path><path id="path4" d="M116.800 26.000 C 116.250 26.176,145.680 26.317,182.200 26.314 C 218.720 26.311,247.880 26.159,247.000 25.977 C 244.944 25.552,118.130 25.574,116.800 26.000 M109.600 26.400 C 109.600 26.620,109.870 26.800,110.200 26.800 C 110.530 26.800,110.800 26.620,110.800 26.400 C 110.800 26.180,110.530 26.000,110.200 26.000 C 109.870 26.000,109.600 26.180,109.600 26.400 M249.700 26.634 C 248.256 27.265,248.113 27.656,249.000 28.543 C 249.708 29.250,249.797 29.769,249.142 29.364 C 248.826 29.169,248.747 29.409,248.887 30.141 C 248.998 30.723,248.979 31.200,248.845 31.200 C 248.710 31.201,248.581 32.956,248.558 35.100 C 248.535 37.245,248.231 40.530,247.881 42.400 C 246.746 48.467,247.104 103.671,248.302 107.225 C 250.770 114.554,256.468 118.799,264.939 119.620 C 270.027 120.113,319.342 120.060,322.600 119.557 C 323.920 119.354,325.606 119.098,326.347 118.989 C 327.087 118.879,327.854 118.690,328.050 118.569 C 328.885 118.053,335.784 117.792,337.163 118.224 C 337.848 118.439,338.043 118.393,337.839 118.063 C 337.682 117.808,337.743 117.600,337.976 117.600 C 338.209 117.600,338.400 117.810,338.400 118.067 C 338.400 118.323,338.518 118.415,338.663 118.270 C 338.808 118.125,339.172 118.211,339.473 118.460 C 340.262 119.115,340.603 118.559,340.061 117.504 C 339.602 116.613,339.599 116.614,339.848 117.600 C 340.132 118.728,339.931 118.627,339.237 117.294 C 338.863 116.575,338.872 116.410,339.283 116.494 C 339.648 116.569,339.825 115.954,339.885 114.401 C 339.943 112.891,339.851 112.390,339.591 112.801 C 339.339 113.200,339.210 113.233,339.206 112.900 C 339.203 112.625,339.009 112.400,338.776 112.400 C 338.543 112.400,338.476 112.600,338.628 112.845 C 338.960 113.383,338.074 114.003,337.362 113.730 C 337.080 113.622,336.946 113.234,337.063 112.867 C 337.238 112.319,337.203 112.303,336.868 112.775 C 336.579 113.182,335.547 113.365,333.330 113.403 C 330.863 113.446,329.396 113.747,326.400 114.829 L 322.600 116.200 295.800 116.320 C 261.169 116.474,262.224 116.620,256.409 110.870 C 250.616 105.142,250.798 106.392,250.811 72.364 L 250.822 45.329 252.030 40.818 C 253.018 37.130,253.222 35.650,253.146 32.702 C 253.076 29.963,253.192 28.988,253.627 28.647 C 254.477 27.980,254.526 27.136,253.709 27.219 C 252.194 27.375,249.880 27.186,250.138 26.929 C 250.287 26.780,251.324 26.699,252.441 26.750 C 253.784 26.811,254.385 26.700,254.213 26.421 C 253.849 25.832,251.254 25.954,249.700 26.634 M255.520 26.880 C 255.893 27.253,256.107 27.253,256.480 26.880 C 256.853 26.507,256.747 26.400,256.000 26.400 C 255.253 26.400,255.147 26.507,255.520 26.880 M261.202 28.804 C 261.457 29.279,261.769 29.565,261.896 29.438 C 262.265 29.068,263.217 30.048,262.934 30.507 C 262.784 30.749,262.870 30.804,263.138 30.638 C 263.551 30.383,263.780 30.861,263.647 31.700 C 263.621 31.865,263.780 32.000,264.000 32.000 C 265.020 32.000,263.129 29.218,261.527 28.361 C 260.809 27.977,260.780 28.016,261.202 28.804 M271.708 39.237 C 272.098 39.464,272.312 39.818,272.185 40.025 C 272.057 40.231,272.143 40.400,272.376 40.400 C 272.609 40.400,272.800 40.256,272.800 40.080 C 272.800 39.615,271.910 38.798,271.420 38.812 C 271.189 38.819,271.319 39.010,271.708 39.237 M277.451 44.988 C 277.579 45.322,277.839 45.499,278.029 45.382 C 278.219 45.265,278.603 45.536,278.883 45.984 C 279.163 46.433,279.557 46.800,279.758 46.800 C 280.229 46.800,278.824 45.241,277.913 44.754 C 277.372 44.464,277.269 44.516,277.451 44.988 M92.400 46.024 C 92.400 46.477,92.580 46.736,92.800 46.600 C 93.020 46.464,93.200 46.093,93.200 45.776 C 93.200 45.459,93.020 45.200,92.800 45.200 C 92.580 45.200,92.400 45.571,92.400 46.024 M284.254 52.596 C 284.380 52.925,284.645 53.096,284.842 52.974 C 285.039 52.852,285.200 52.954,285.200 53.200 C 285.200 53.446,285.361 53.548,285.558 53.426 C 285.755 53.304,286.024 53.485,286.155 53.828 C 286.287 54.170,286.563 54.346,286.770 54.219 C 287.131 53.995,287.781 54.682,287.794 55.300 C 287.797 55.465,287.935 55.600,288.100 55.600 C 288.265 55.600,288.521 55.600,288.670 55.600 C 289.268 55.600,286.902 53.472,285.512 52.759 C 284.314 52.145,284.068 52.113,284.254 52.596 M81.900 59.882 C 82.395 59.978,83.205 59.978,83.700 59.882 C 84.195 59.787,83.790 59.709,82.800 59.709 C 81.810 59.709,81.405 59.787,81.900 59.882 M92.200 60.000 C 92.064 60.220,92.233 60.400,92.576 60.400 C 92.919 60.400,93.201 60.535,93.201 60.700 C 93.202 60.865,93.754 61.360,94.428 61.800 C 95.101 62.240,96.267 63.637,97.017 64.905 C 99.814 69.631,99.600 59.012,99.603 193.258 C 99.607 318.880,99.620 319.913,101.279 323.518 C 102.483 326.136,107.845 331.390,110.599 332.651 C 114.230 334.313,119.509 334.410,211.600 334.508 L 298.200 334.600 300.783 335.921 C 302.204 336.647,303.919 337.862,304.593 338.621 C 305.268 339.379,306.051 340.000,306.334 340.000 C 306.616 340.000,306.749 340.160,306.628 340.355 C 306.507 340.550,306.677 340.932,307.004 341.204 C 307.332 341.476,307.615 341.631,307.633 341.549 C 308.012 339.856,307.762 339.269,305.847 337.365 C 304.721 336.246,303.461 334.853,303.047 334.269 C 301.921 332.683,298.403 331.182,295.270 330.952 C 293.802 330.845,253.540 330.710,205.800 330.653 C 116.069 330.546,116.595 330.555,113.615 329.004 C 112.631 328.492,105.954 321.993,105.181 320.795 C 103.296 317.874,103.416 325.522,103.193 193.400 C 103.080 125.860,102.869 70.217,102.726 69.749 C 101.729 66.500,100.151 64.240,97.921 62.869 C 97.107 62.369,96.341 61.645,96.219 61.260 C 95.869 60.158,92.714 59.169,92.200 60.000 M310.904 78.461 C 311.012 78.758,311.290 78.959,311.522 78.909 C 312.134 78.778,314.054 81.189,313.741 81.696 C 313.583 81.951,313.665 82.007,313.945 81.834 C 314.202 81.675,314.293 81.332,314.147 81.072 C 313.280 79.534,310.470 77.271,310.904 78.461 M59.731 81.800 C 59.733 83.340,59.805 83.921,59.892 83.091 C 59.979 82.261,59.977 81.001,59.889 80.291 C 59.800 79.581,59.729 80.260,59.731 81.800 M321.694 89.317 C 322.075 89.626,322.270 89.996,322.127 90.140 C 321.984 90.283,322.077 90.400,322.333 90.400 C 323.120 90.400,322.852 89.653,321.900 89.192 C 321.092 88.801,321.071 88.814,321.694 89.317 M325.854 94.196 C 325.980 94.525,326.245 94.696,326.442 94.574 C 326.639 94.452,326.800 94.554,326.800 94.800 C 326.800 95.046,326.980 95.136,327.200 95.000 C 327.420 94.864,327.600 94.954,327.600 95.200 C 327.600 95.446,327.774 95.540,327.987 95.408 C 328.200 95.277,328.603 95.536,328.883 95.984 C 329.163 96.433,329.557 96.800,329.758 96.800 C 330.432 96.800,328.617 95.124,327.112 94.355 C 325.911 93.743,325.668 93.712,325.854 94.196 M330.094 97.717 C 330.475 98.026,330.670 98.396,330.527 98.540 C 330.384 98.683,330.477 98.800,330.733 98.800 C 331.520 98.800,331.252 98.053,330.300 97.592 C 329.492 97.201,329.471 97.214,330.094 97.717 M331.192 99.464 C 331.419 99.576,331.516 99.813,331.407 99.989 C 331.298 100.165,331.477 100.532,331.804 100.804 C 332.218 101.147,332.400 101.161,332.400 100.849 C 332.400 100.602,332.220 100.400,332.000 100.400 C 331.780 100.400,331.645 100.198,331.700 99.950 C 331.755 99.703,331.571 99.446,331.290 99.380 C 331.010 99.314,330.966 99.352,331.192 99.464 M334.254 102.596 C 334.380 102.925,334.645 103.096,334.842 102.974 C 335.039 102.852,335.200 102.954,335.200 103.200 C 335.200 103.446,335.361 103.548,335.558 103.426 C 335.755 103.304,336.024 103.485,336.155 103.828 C 336.287 104.170,336.563 104.346,336.770 104.219 C 337.131 103.995,337.781 104.682,337.794 105.300 C 337.797 105.465,337.935 105.600,338.100 105.600 C 338.265 105.600,338.521 105.600,338.670 105.600 C 339.268 105.600,336.902 103.472,335.512 102.759 C 334.314 102.145,334.068 102.113,334.254 102.596 M340.178 110.835 C 340.031 111.074,340.110 111.470,340.355 111.715 C 340.682 112.042,340.800 111.926,340.800 111.280 C 340.800 110.314,340.592 110.165,340.178 110.835 M340.406 114.876 C 340.410 116.653,340.527 117.222,340.800 116.800 C 341.311 116.010,341.311 112.916,340.800 112.600 C 340.549 112.445,340.402 113.294,340.406 114.876 M340.874 218.400 C 340.884 273.510,341.041 317.880,341.223 317.000 C 341.664 314.869,341.641 120.027,341.200 119.000 C 341.007 118.551,340.864 162.190,340.874 218.400 M340.692 322.642 C 340.531 322.802,340.405 323.308,340.412 323.767 C 340.423 324.536,340.456 324.545,340.840 323.885 C 341.288 323.116,341.173 322.160,340.692 322.642 M322.800 340.800 C 322.800 341.020,323.070 341.200,323.400 341.200 C 323.730 341.200,324.000 341.020,324.000 340.800 C 324.000 340.580,323.730 340.400,323.400 340.400 C 323.070 340.400,322.800 340.580,322.800 340.800 M308.489 341.423 C 308.000 341.765,307.605 342.260,307.612 342.523 C 307.619 342.785,307.795 342.709,308.003 342.353 C 308.300 341.843,309.135 341.690,311.932 341.634 C 317.406 341.523,318.746 340.876,313.589 340.834 C 310.382 340.808,309.166 340.949,308.489 341.423 M59.728 352.000 C 59.728 353.430,59.801 354.015,59.889 353.300 C 59.978 352.585,59.978 351.415,59.889 350.700 C 59.801 349.985,59.728 350.570,59.728 352.000 M307.328 352.000 C 307.328 353.430,307.401 354.015,307.489 353.300 C 307.578 352.585,307.578 351.415,307.489 350.700 C 307.401 349.985,307.328 350.570,307.328 352.000 M135.500 374.300 C 161.955 374.357,205.245 374.357,231.700 374.300 C 258.155 374.243,236.510 374.197,183.600 374.197 C 130.690 374.197,109.045 374.243,135.500 374.300 " stroke="none" fill="#58c8e4" fill-rule="evenodd"></path><path id="path5" d="M116.800 26.000 C 116.250 26.176,145.680 26.317,182.200 26.314 C 218.720 26.311,247.880 26.159,247.000 25.977 C 244.944 25.552,118.130 25.574,116.800 26.000 M109.600 26.400 C 109.600 26.620,109.870 26.800,110.200 26.800 C 110.530 26.800,110.800 26.620,110.800 26.400 C 110.800 26.180,110.530 26.000,110.200 26.000 C 109.870 26.000,109.600 26.180,109.600 26.400 M249.700 26.634 C 248.256 27.265,248.113 27.656,249.000 28.543 C 249.708 29.250,249.797 29.769,249.142 29.364 C 248.826 29.169,248.747 29.409,248.887 30.141 C 248.998 30.723,248.979 31.200,248.845 31.200 C 248.710 31.201,248.581 32.956,248.558 35.100 C 248.535 37.245,248.231 40.530,247.881 42.400 C 246.746 48.467,247.104 103.671,248.302 107.225 C 250.770 114.554,256.468 118.799,264.939 119.620 C 270.027 120.113,319.342 120.060,322.600 119.557 C 323.920 119.354,325.606 119.098,326.347 118.989 C 327.087 118.879,327.854 118.690,328.050 118.569 C 328.885 118.053,335.784 117.792,337.163 118.224 C 337.848 118.439,338.043 118.393,337.839 118.063 C 337.682 117.808,337.743 117.600,337.976 117.600 C 338.209 117.600,338.400 117.810,338.400 118.067 C 338.400 118.323,338.518 118.415,338.663 118.270 C 338.808 118.125,339.172 118.211,339.473 118.460 C 340.262 119.115,340.603 118.559,340.061 117.504 C 339.602 116.613,339.599 116.614,339.848 117.600 C 340.132 118.728,339.931 118.627,339.237 117.294 C 338.863 116.575,338.872 116.410,339.283 116.494 C 339.648 116.569,339.825 115.954,339.885 114.401 C 339.943 112.891,339.851 112.390,339.591 112.801 C 339.339 113.200,339.210 113.233,339.206 112.900 C 339.203 112.625,339.009 112.400,338.776 112.400 C 338.543 112.400,338.476 112.600,338.628 112.845 C 338.960 113.383,338.074 114.003,337.362 113.730 C 337.080 113.622,336.946 113.234,337.063 112.867 C 337.238 112.319,337.203 112.303,336.868 112.775 C 336.579 113.182,335.547 113.365,333.330 113.403 C 330.863 113.446,329.396 113.747,326.400 114.829 L 322.600 116.200 295.800 116.320 C 261.169 116.474,262.224 116.620,256.409 110.870 C 250.616 105.142,250.798 106.392,250.811 72.364 L 250.822 45.329 252.030 40.818 C 253.018 37.130,253.222 35.650,253.146 32.702 C 253.076 29.963,253.192 28.988,253.627 28.647 C 254.477 27.980,254.526 27.136,253.709 27.219 C 252.194 27.375,249.880 27.186,250.138 26.929 C 250.287 26.780,251.324 26.699,252.441 26.750 C 253.784 26.811,254.385 26.700,254.213 26.421 C 253.849 25.832,251.254 25.954,249.700 26.634 M255.520 26.880 C 255.893 27.253,256.107 27.253,256.480 26.880 C 256.853 26.507,256.747 26.400,256.000 26.400 C 255.253 26.400,255.147 26.507,255.520 26.880 M261.202 28.804 C 261.457 29.279,261.769 29.565,261.896 29.438 C 262.265 29.068,263.217 30.048,262.934 30.507 C 262.784 30.749,262.870 30.804,263.138 30.638 C 263.551 30.383,263.780 30.861,263.647 31.700 C 263.621 31.865,263.780 32.000,264.000 32.000 C 265.020 32.000,263.129 29.218,261.527 28.361 C 260.809 27.977,260.780 28.016,261.202 28.804 M271.708 39.237 C 272.098 39.464,272.312 39.818,272.185 40.025 C 272.057 40.231,272.143 40.400,272.376 40.400 C 272.609 40.400,272.800 40.256,272.800 40.080 C 272.800 39.615,271.910 38.798,271.420 38.812 C 271.189 38.819,271.319 39.010,271.708 39.237 M277.451 44.988 C 277.579 45.322,277.839 45.499,278.029 45.382 C 278.219 45.265,278.603 45.536,278.883 45.984 C 279.163 46.433,279.557 46.800,279.758 46.800 C 280.229 46.800,278.824 45.241,277.913 44.754 C 277.372 44.464,277.269 44.516,277.451 44.988 M92.400 46.024 C 92.400 46.477,92.580 46.736,92.800 46.600 C 93.020 46.464,93.200 46.093,93.200 45.776 C 93.200 45.459,93.020 45.200,92.800 45.200 C 92.580 45.200,92.400 45.571,92.400 46.024 M284.254 52.596 C 284.380 52.925,284.645 53.096,284.842 52.974 C 285.039 52.852,285.200 52.954,285.200 53.200 C 285.200 53.446,285.361 53.548,285.558 53.426 C 285.755 53.304,286.024 53.485,286.155 53.828 C 286.287 54.170,286.563 54.346,286.770 54.219 C 287.131 53.995,287.781 54.682,287.794 55.300 C 287.797 55.465,287.935 55.600,288.100 55.600 C 288.265 55.600,288.521 55.600,288.670 55.600 C 289.268 55.600,286.902 53.472,285.512 52.759 C 284.314 52.145,284.068 52.113,284.254 52.596 M81.900 59.882 C 82.395 59.978,83.205 59.978,83.700 59.882 C 84.195 59.787,83.790 59.709,82.800 59.709 C 81.810 59.709,81.405 59.787,81.900 59.882 M92.200 60.000 C 92.064 60.220,92.233 60.400,92.576 60.400 C 92.919 60.400,93.201 60.535,93.201 60.700 C 93.202 60.865,93.754 61.360,94.428 61.800 C 95.101 62.240,96.267 63.637,97.017 64.905 C 99.814 69.631,99.600 59.012,99.603 193.258 C 99.607 318.880,99.620 319.913,101.279 323.518 C 102.483 326.136,107.845 331.390,110.599 332.651 C 114.230 334.313,119.509 334.410,211.600 334.508 L 298.200 334.600 300.783 335.921 C 302.204 336.647,303.919 337.862,304.593 338.621 C 305.268 339.379,306.051 340.000,306.334 340.000 C 306.616 340.000,306.749 340.160,306.628 340.355 C 306.507 340.550,306.677 340.932,307.004 341.204 C 307.332 341.476,307.615 341.631,307.633 341.549 C 308.012 339.856,307.762 339.269,305.847 337.365 C 304.721 336.246,303.461 334.853,303.047 334.269 C 301.921 332.683,298.403 331.182,295.270 330.952 C 293.802 330.845,253.540 330.710,205.800 330.653 C 116.069 330.546,116.595 330.555,113.615 329.004 C 112.631 328.492,105.954 321.993,105.181 320.795 C 103.296 317.874,103.416 325.522,103.193 193.400 C 103.080 125.860,102.869 70.217,102.726 69.749 C 101.729 66.500,100.151 64.240,97.921 62.869 C 97.107 62.369,96.341 61.645,96.219 61.260 C 95.869 60.158,92.714 59.169,92.200 60.000 M310.904 78.461 C 311.012 78.758,311.290 78.959,311.522 78.909 C 312.134 78.778,314.054 81.189,313.741 81.696 C 313.583 81.951,313.665 82.007,313.945 81.834 C 314.202 81.675,314.293 81.332,314.147 81.072 C 313.280 79.534,310.470 77.271,310.904 78.461 M59.731 81.800 C 59.733 83.340,59.805 83.921,59.892 83.091 C 59.979 82.261,59.977 81.001,59.889 80.291 C 59.800 79.581,59.729 80.260,59.731 81.800 M321.694 89.317 C 322.075 89.626,322.270 89.996,322.127 90.140 C 321.984 90.283,322.077 90.400,322.333 90.400 C 323.120 90.400,322.852 89.653,321.900 89.192 C 321.092 88.801,321.071 88.814,321.694 89.317 M325.854 94.196 C 325.980 94.525,326.245 94.696,326.442 94.574 C 326.639 94.452,326.800 94.554,326.800 94.800 C 326.800 95.046,326.980 95.136,327.200 95.000 C 327.420 94.864,327.600 94.954,327.600 95.200 C 327.600 95.446,327.774 95.540,327.987 95.408 C 328.200 95.277,328.603 95.536,328.883 95.984 C 329.163 96.433,329.557 96.800,329.758 96.800 C 330.432 96.800,328.617 95.124,327.112 94.355 C 325.911 93.743,325.668 93.712,325.854 94.196 M330.094 97.717 C 330.475 98.026,330.670 98.396,330.527 98.540 C 330.384 98.683,330.477 98.800,330.733 98.800 C 331.520 98.800,331.252 98.053,330.300 97.592 C 329.492 97.201,329.471 97.214,330.094 97.717 M331.192 99.464 C 331.419 99.576,331.516 99.813,331.407 99.989 C 331.298 100.165,331.477 100.532,331.804 100.804 C 332.218 101.147,332.400 101.161,332.400 100.849 C 332.400 100.602,332.220 100.400,332.000 100.400 C 331.780 100.400,331.645 100.198,331.700 99.950 C 331.755 99.703,331.571 99.446,331.290 99.380 C 331.010 99.314,330.966 99.352,331.192 99.464 M334.254 102.596 C 334.380 102.925,334.645 103.096,334.842 102.974 C 335.039 102.852,335.200 102.954,335.200 103.200 C 335.200 103.446,335.361 103.548,335.558 103.426 C 335.755 103.304,336.024 103.485,336.155 103.828 C 336.287 104.170,336.563 104.346,336.770 104.219 C 337.131 103.995,337.781 104.682,337.794 105.300 C 337.797 105.465,337.935 105.600,338.100 105.600 C 338.265 105.600,338.521 105.600,338.670 105.600 C 339.268 105.600,336.902 103.472,335.512 102.759 C 334.314 102.145,334.068 102.113,334.254 102.596 M340.178 110.835 C 340.031 111.074,340.110 111.470,340.355 111.715 C 340.682 112.042,340.800 111.926,340.800 111.280 C 340.800 110.314,340.592 110.165,340.178 110.835 M340.406 114.876 C 340.410 116.653,340.527 117.222,340.800 116.800 C 341.311 116.010,341.311 112.916,340.800 112.600 C 340.549 112.445,340.402 113.294,340.406 114.876 M340.874 218.400 C 340.884 273.510,341.041 317.880,341.223 317.000 C 341.664 314.869,341.641 120.027,341.200 119.000 C 341.007 118.551,340.864 162.190,340.874 218.400 M340.692 322.642 C 340.531 322.802,340.405 323.308,340.412 323.767 C 340.423 324.536,340.456 324.545,340.840 323.885 C 341.288 323.116,341.173 322.160,340.692 322.642 M322.800 340.800 C 322.800 341.020,323.070 341.200,323.400 341.200 C 323.730 341.200,324.000 341.020,324.000 340.800 C 324.000 340.580,323.730 340.400,323.400 340.400 C 323.070 340.400,322.800 340.580,322.800 340.800 M308.489 341.423 C 308.000 341.765,307.605 342.260,307.612 342.523 C 307.619 342.785,307.795 342.709,308.003 342.353 C 308.300 341.843,309.135 341.690,311.932 341.634 C 317.406 341.523,318.746 340.876,313.589 340.834 C 310.382 340.808,309.166 340.949,308.489 341.423 M59.728 352.000 C 59.728 353.430,59.801 354.015,59.889 353.300 C 59.978 352.585,59.978 351.415,59.889 350.700 C 59.801 349.985,59.728 350.570,59.728 352.000 M307.328 352.000 C 307.328 353.430,307.401 354.015,307.489 353.300 C 307.578 352.585,307.578 351.415,307.489 350.700 C 307.401 349.985,307.328 350.570,307.328 352.000 M135.500 374.300 C 161.955 374.357,205.245 374.357,231.700 374.300 C 258.155 374.243,236.510 374.197,183.600 374.197 C 130.690 374.197,109.045 374.243,135.500 374.300 " stroke="none" fill="#58c8e4" fill-rule="evenodd"></path><path id="path6" d="M116.800 26.000 C 116.250 26.176,145.680 26.317,182.200 26.314 C 218.720 26.311,247.880 26.159,247.000 25.977 C 244.944 25.552,118.130 25.574,116.800 26.000 M109.600 26.400 C 109.600 26.620,109.870 26.800,110.200 26.800 C 110.530 26.800,110.800 26.620,110.800 26.400 C 110.800 26.180,110.530 26.000,110.200 26.000 C 109.870 26.000,109.600 26.180,109.600 26.400 M249.700 26.634 C 248.256 27.265,248.113 27.656,249.000 28.543 C 249.708 29.250,249.797 29.769,249.142 29.364 C 248.826 29.169,248.747 29.409,248.887 30.141 C 248.998 30.723,248.979 31.200,248.845 31.200 C 248.710 31.201,248.581 32.956,248.558 35.100 C 248.535 37.245,248.231 40.530,247.881 42.400 C 246.746 48.467,247.104 103.671,248.302 107.225 C 250.770 114.554,256.468 118.799,264.939 119.620 C 270.027 120.113,319.342 120.060,322.600 119.557 C 323.920 119.354,325.606 119.098,326.347 118.989 C 327.087 118.879,327.854 118.690,328.050 118.569 C 328.885 118.053,335.784 117.792,337.163 118.224 C 337.848 118.439,338.043 118.393,337.839 118.063 C 337.682 117.808,337.743 117.600,337.976 117.600 C 338.209 117.600,338.400 117.810,338.400 118.067 C 338.400 118.323,338.518 118.415,338.663 118.270 C 338.808 118.125,339.172 118.211,339.473 118.460 C 340.262 119.115,340.603 118.559,340.061 117.504 C 339.602 116.613,339.599 116.614,339.848 117.600 C 340.132 118.728,339.931 118.627,339.237 117.294 C 338.863 116.575,338.872 116.410,339.283 116.494 C 339.648 116.569,339.825 115.954,339.885 114.401 C 339.943 112.891,339.851 112.390,339.591 112.801 C 339.339 113.200,339.210 113.233,339.206 112.900 C 339.203 112.625,339.009 112.400,338.776 112.400 C 338.543 112.400,338.476 112.600,338.628 112.845 C 338.960 113.383,338.074 114.003,337.362 113.730 C 337.080 113.622,336.946 113.234,337.063 112.867 C 337.238 112.319,337.203 112.303,336.868 112.775 C 336.579 113.182,335.547 113.365,333.330 113.403 C 330.863 113.446,329.396 113.747,326.400 114.829 L 322.600 116.200 295.800 116.320 C 261.169 116.474,262.224 116.620,256.409 110.870 C 250.616 105.142,250.798 106.392,250.811 72.364 L 250.822 45.329 252.030 40.818 C 253.018 37.130,253.222 35.650,253.146 32.702 C 253.076 29.963,253.192 28.988,253.627 28.647 C 254.477 27.980,254.526 27.136,253.709 27.219 C 252.194 27.375,249.880 27.186,250.138 26.929 C 250.287 26.780,251.324 26.699,252.441 26.750 C 253.784 26.811,254.385 26.700,254.213 26.421 C 253.849 25.832,251.254 25.954,249.700 26.634 M255.520 26.880 C 255.893 27.253,256.107 27.253,256.480 26.880 C 256.853 26.507,256.747 26.400,256.000 26.400 C 255.253 26.400,255.147 26.507,255.520 26.880 M261.202 28.804 C 261.457 29.279,261.769 29.565,261.896 29.438 C 262.265 29.068,263.217 30.048,262.934 30.507 C 262.784 30.749,262.870 30.804,263.138 30.638 C 263.551 30.383,263.780 30.861,263.647 31.700 C 263.621 31.865,263.780 32.000,264.000 32.000 C 265.020 32.000,263.129 29.218,261.527 28.361 C 260.809 27.977,260.780 28.016,261.202 28.804 M271.708 39.237 C 272.098 39.464,272.312 39.818,272.185 40.025 C 272.057 40.231,272.143 40.400,272.376 40.400 C 272.609 40.400,272.800 40.256,272.800 40.080 C 272.800 39.615,271.910 38.798,271.420 38.812 C 271.189 38.819,271.319 39.010,271.708 39.237 M277.451 44.988 C 277.579 45.322,277.839 45.499,278.029 45.382 C 278.219 45.265,278.603 45.536,278.883 45.984 C 279.163 46.433,279.557 46.800,279.758 46.800 C 280.229 46.800,278.824 45.241,277.913 44.754 C 277.372 44.464,277.269 44.516,277.451 44.988 M92.400 46.024 C 92.400 46.477,92.580 46.736,92.800 46.600 C 93.020 46.464,93.200 46.093,93.200 45.776 C 93.200 45.459,93.020 45.200,92.800 45.200 C 92.580 45.200,92.400 45.571,92.400 46.024 M284.254 52.596 C 284.380 52.925,284.645 53.096,284.842 52.974 C 285.039 52.852,285.200 52.954,285.200 53.200 C 285.200 53.446,285.361 53.548,285.558 53.426 C 285.755 53.304,286.024 53.485,286.155 53.828 C 286.287 54.170,286.563 54.346,286.770 54.219 C 287.131 53.995,287.781 54.682,287.794 55.300 C 287.797 55.465,287.935 55.600,288.100 55.600 C 288.265 55.600,288.521 55.600,288.670 55.600 C 289.268 55.600,286.902 53.472,285.512 52.759 C 284.314 52.145,284.068 52.113,284.254 52.596 M81.900 59.882 C 82.395 59.978,83.205 59.978,83.700 59.882 C 84.195 59.787,83.790 59.709,82.800 59.709 C 81.810 59.709,81.405 59.787,81.900 59.882 M92.200 60.000 C 92.064 60.220,92.233 60.400,92.576 60.400 C 92.919 60.400,93.201 60.535,93.201 60.700 C 93.202 60.865,93.754 61.360,94.428 61.800 C 95.101 62.240,96.267 63.637,97.017 64.905 C 99.814 69.631,99.600 59.012,99.603 193.258 C 99.607 318.880,99.620 319.913,101.279 323.518 C 102.483 326.136,107.845 331.390,110.599 332.651 C 114.230 334.313,119.509 334.410,211.600 334.508 L 298.200 334.600 300.783 335.921 C 302.204 336.647,303.919 337.862,304.593 338.621 C 305.268 339.379,306.051 340.000,306.334 340.000 C 306.616 340.000,306.749 340.160,306.628 340.355 C 306.507 340.550,306.677 340.932,307.004 341.204 C 307.332 341.476,307.615 341.631,307.633 341.549 C 308.012 339.856,307.762 339.269,305.847 337.365 C 304.721 336.246,303.461 334.853,303.047 334.269 C 301.921 332.683,298.403 331.182,295.270 330.952 C 293.802 330.845,253.540 330.710,205.800 330.653 C 116.069 330.546,116.595 330.555,113.615 329.004 C 112.631 328.492,105.954 321.993,105.181 320.795 C 103.296 317.874,103.416 325.522,103.193 193.400 C 103.080 125.860,102.869 70.217,102.726 69.749 C 101.729 66.500,100.151 64.240,97.921 62.869 C 97.107 62.369,96.341 61.645,96.219 61.260 C 95.869 60.158,92.714 59.169,92.200 60.000 M310.904 78.461 C 311.012 78.758,311.290 78.959,311.522 78.909 C 312.134 78.778,314.054 81.189,313.741 81.696 C 313.583 81.951,313.665 82.007,313.945 81.834 C 314.202 81.675,314.293 81.332,314.147 81.072 C 313.280 79.534,310.470 77.271,310.904 78.461 M59.731 81.800 C 59.733 83.340,59.805 83.921,59.892 83.091 C 59.979 82.261,59.977 81.001,59.889 80.291 C 59.800 79.581,59.729 80.260,59.731 81.800 M321.694 89.317 C 322.075 89.626,322.270 89.996,322.127 90.140 C 321.984 90.283,322.077 90.400,322.333 90.400 C 323.120 90.400,322.852 89.653,321.900 89.192 C 321.092 88.801,321.071 88.814,321.694 89.317 M325.854 94.196 C 325.980 94.525,326.245 94.696,326.442 94.574 C 326.639 94.452,326.800 94.554,326.800 94.800 C 326.800 95.046,326.980 95.136,327.200 95.000 C 327.420 94.864,327.600 94.954,327.600 95.200 C 327.600 95.446,327.774 95.540,327.987 95.408 C 328.200 95.277,328.603 95.536,328.883 95.984 C 329.163 96.433,329.557 96.800,329.758 96.800 C 330.432 96.800,328.617 95.124,327.112 94.355 C 325.911 93.743,325.668 93.712,325.854 94.196 M330.094 97.717 C 330.475 98.026,330.670 98.396,330.527 98.540 C 330.384 98.683,330.477 98.800,330.733 98.800 C 331.520 98.800,331.252 98.053,330.300 97.592 C 329.492 97.201,329.471 97.214,330.094 97.717 M331.192 99.464 C 331.419 99.576,331.516 99.813,331.407 99.989 C 331.298 100.165,331.477 100.532,331.804 100.804 C 332.218 101.147,332.400 101.161,332.400 100.849 C 332.400 100.602,332.220 100.400,332.000 100.400 C 331.780 100.400,331.645 100.198,331.700 99.950 C 331.755 99.703,331.571 99.446,331.290 99.380 C 331.010 99.314,330.966 99.352,331.192 99.464 M334.254 102.596 C 334.380 102.925,334.645 103.096,334.842 102.974 C 335.039 102.852,335.200 102.954,335.200 103.200 C 335.200 103.446,335.361 103.548,335.558 103.426 C 335.755 103.304,336.024 103.485,336.155 103.828 C 336.287 104.170,336.563 104.346,336.770 104.219 C 337.131 103.995,337.781 104.682,337.794 105.300 C 337.797 105.465,337.935 105.600,338.100 105.600 C 338.265 105.600,338.521 105.600,338.670 105.600 C 339.268 105.600,336.902 103.472,335.512 102.759 C 334.314 102.145,334.068 102.113,334.254 102.596 M340.178 110.835 C 340.031 111.074,340.110 111.470,340.355 111.715 C 340.682 112.042,340.800 111.926,340.800 111.280 C 340.800 110.314,340.592 110.165,340.178 110.835 M340.406 114.876 C 340.410 116.653,340.527 117.222,340.800 116.800 C 341.311 116.010,341.311 112.916,340.800 112.600 C 340.549 112.445,340.402 113.294,340.406 114.876 M340.874 218.400 C 340.884 273.510,341.041 317.880,341.223 317.000 C 341.664 314.869,341.641 120.027,341.200 119.000 C 341.007 118.551,340.864 162.190,340.874 218.400 M340.692 322.642 C 340.531 322.802,340.405 323.308,340.412 323.767 C 340.423 324.536,340.456 324.545,340.840 323.885 C 341.288 323.116,341.173 322.160,340.692 322.642 M322.800 340.800 C 322.800 341.020,323.070 341.200,323.400 341.200 C 323.730 341.200,324.000 341.020,324.000 340.800 C 324.000 340.580,323.730 340.400,323.400 340.400 C 323.070 340.400,322.800 340.580,322.800 340.800 M308.489 341.423 C 308.000 341.765,307.605 342.260,307.612 342.523 C 307.619 342.785,307.795 342.709,308.003 342.353 C 308.300 341.843,309.135 341.690,311.932 341.634 C 317.406 341.523,318.746 340.876,313.589 340.834 C 310.382 340.808,309.166 340.949,308.489 341.423 M59.728 352.000 C 59.728 353.430,59.801 354.015,59.889 353.300 C 59.978 352.585,59.978 351.415,59.889 350.700 C 59.801 349.985,59.728 350.570,59.728 352.000 M307.328 352.000 C 307.328 353.430,307.401 354.015,307.489 353.300 C 307.578 352.585,307.578 351.415,307.489 350.700 C 307.401 349.985,307.328 350.570,307.328 352.000 M135.500 374.300 C 161.955 374.357,205.245 374.357,231.700 374.300 C 258.155 374.243,236.510 374.197,183.600 374.197 C 130.690 374.197,109.045 374.243,135.500 374.300 " stroke="none" fill="#58c8e4" fill-rule="evenodd"></path><path id="path7" d="M116.800 26.000 C 116.250 26.176,145.680 26.317,182.200 26.314 C 218.720 26.311,247.880 26.159,247.000 25.977 C 244.944 25.552,118.130 25.574,116.800 26.000 M109.600 26.400 C 109.600 26.620,109.870 26.800,110.200 26.800 C 110.530 26.800,110.800 26.620,110.800 26.400 C 110.800 26.180,110.530 26.000,110.200 26.000 C 109.870 26.000,109.600 26.180,109.600 26.400 M249.700 26.634 C 248.256 27.265,248.113 27.656,249.000 28.543 C 249.708 29.250,249.797 29.769,249.142 29.364 C 248.826 29.169,248.747 29.409,248.887 30.141 C 248.998 30.723,248.979 31.200,248.845 31.200 C 248.710 31.201,248.581 32.956,248.558 35.100 C 248.535 37.245,248.231 40.530,247.881 42.400 C 246.746 48.467,247.104 103.671,248.302 107.225 C 250.770 114.554,256.468 118.799,264.939 119.620 C 270.027 120.113,319.342 120.060,322.600 119.557 C 323.920 119.354,325.606 119.098,326.347 118.989 C 327.087 118.879,327.854 118.690,328.050 118.569 C 328.885 118.053,335.784 117.792,337.163 118.224 C 337.848 118.439,338.043 118.393,337.839 118.063 C 337.682 117.808,337.743 117.600,337.976 117.600 C 338.209 117.600,338.400 117.810,338.400 118.067 C 338.400 118.323,338.518 118.415,338.663 118.270 C 338.808 118.125,339.172 118.211,339.473 118.460 C 340.262 119.115,340.603 118.559,340.061 117.504 C 339.602 116.613,339.599 116.614,339.848 117.600 C 340.132 118.728,339.931 118.627,339.237 117.294 C 338.863 116.575,338.872 116.410,339.283 116.494 C 339.648 116.569,339.825 115.954,339.885 114.401 C 339.943 112.891,339.851 112.390,339.591 112.801 C 339.339 113.200,339.210 113.233,339.206 112.900 C 339.203 112.625,339.009 112.400,338.776 112.400 C 338.543 112.400,338.476 112.600,338.628 112.845 C 338.960 113.383,338.074 114.003,337.362 113.730 C 337.080 113.622,336.946 113.234,337.063 112.867 C 337.238 112.319,337.203 112.303,336.868 112.775 C 336.579 113.182,335.547 113.365,333.330 113.403 C 330.863 113.446,329.396 113.747,326.400 114.829 L 322.600 116.200 295.800 116.320 C 261.169 116.474,262.224 116.620,256.409 110.870 C 250.616 105.142,250.798 106.392,250.811 72.364 L 250.822 45.329 252.030 40.818 C 253.018 37.130,253.222 35.650,253.146 32.702 C 253.076 29.963,253.192 28.988,253.627 28.647 C 254.477 27.980,254.526 27.136,253.709 27.219 C 252.194 27.375,249.880 27.186,250.138 26.929 C 250.287 26.780,251.324 26.699,252.441 26.750 C 253.784 26.811,254.385 26.700,254.213 26.421 C 253.849 25.832,251.254 25.954,249.700 26.634 M255.520 26.880 C 255.893 27.253,256.107 27.253,256.480 26.880 C 256.853 26.507,256.747 26.400,256.000 26.400 C 255.253 26.400,255.147 26.507,255.520 26.880 M261.202 28.804 C 261.457 29.279,261.769 29.565,261.896 29.438 C 262.265 29.068,263.217 30.048,262.934 30.507 C 262.784 30.749,262.870 30.804,263.138 30.638 C 263.551 30.383,263.780 30.861,263.647 31.700 C 263.621 31.865,263.780 32.000,264.000 32.000 C 265.020 32.000,263.129 29.218,261.527 28.361 C 260.809 27.977,260.780 28.016,261.202 28.804 M271.708 39.237 C 272.098 39.464,272.312 39.818,272.185 40.025 C 272.057 40.231,272.143 40.400,272.376 40.400 C 272.609 40.400,272.800 40.256,272.800 40.080 C 272.800 39.615,271.910 38.798,271.420 38.812 C 271.189 38.819,271.319 39.010,271.708 39.237 M277.451 44.988 C 277.579 45.322,277.839 45.499,278.029 45.382 C 278.219 45.265,278.603 45.536,278.883 45.984 C 279.163 46.433,279.557 46.800,279.758 46.800 C 280.229 46.800,278.824 45.241,277.913 44.754 C 277.372 44.464,277.269 44.516,277.451 44.988 M92.400 46.024 C 92.400 46.477,92.580 46.736,92.800 46.600 C 93.020 46.464,93.200 46.093,93.200 45.776 C 93.200 45.459,93.020 45.200,92.800 45.200 C 92.580 45.200,92.400 45.571,92.400 46.024 M284.254 52.596 C 284.380 52.925,284.645 53.096,284.842 52.974 C 285.039 52.852,285.200 52.954,285.200 53.200 C 285.200 53.446,285.361 53.548,285.558 53.426 C 285.755 53.304,286.024 53.485,286.155 53.828 C 286.287 54.170,286.563 54.346,286.770 54.219 C 287.131 53.995,287.781 54.682,287.794 55.300 C 287.797 55.465,287.935 55.600,288.100 55.600 C 288.265 55.600,288.521 55.600,288.670 55.600 C 289.268 55.600,286.902 53.472,285.512 52.759 C 284.314 52.145,284.068 52.113,284.254 52.596 M81.900 59.882 C 82.395 59.978,83.205 59.978,83.700 59.882 C 84.195 59.787,83.790 59.709,82.800 59.709 C 81.810 59.709,81.405 59.787,81.900 59.882 M92.200 60.000 C 92.064 60.220,92.233 60.400,92.576 60.400 C 92.919 60.400,93.201 60.535,93.201 60.700 C 93.202 60.865,93.754 61.360,94.428 61.800 C 95.101 62.240,96.267 63.637,97.017 64.905 C 99.814 69.631,99.600 59.012,99.603 193.258 C 99.607 318.880,99.620 319.913,101.279 323.518 C 102.483 326.136,107.845 331.390,110.599 332.651 C 114.230 334.313,119.509 334.410,211.600 334.508 L 298.200 334.600 300.783 335.921 C 302.204 336.647,303.919 337.862,304.593 338.621 C 305.268 339.379,306.051 340.000,306.334 340.000 C 306.616 340.000,306.749 340.160,306.628 340.355 C 306.507 340.550,306.677 340.932,307.004 341.204 C 307.332 341.476,307.615 341.631,307.633 341.549 C 308.012 339.856,307.762 339.269,305.847 337.365 C 304.721 336.246,303.461 334.853,303.047 334.269 C 301.921 332.683,298.403 331.182,295.270 330.952 C 293.802 330.845,253.540 330.710,205.800 330.653 C 116.069 330.546,116.595 330.555,113.615 329.004 C 112.631 328.492,105.954 321.993,105.181 320.795 C 103.296 317.874,103.416 325.522,103.193 193.400 C 103.080 125.860,102.869 70.217,102.726 69.749 C 101.729 66.500,100.151 64.240,97.921 62.869 C 97.107 62.369,96.341 61.645,96.219 61.260 C 95.869 60.158,92.714 59.169,92.200 60.000 M310.904 78.461 C 311.012 78.758,311.290 78.959,311.522 78.909 C 312.134 78.778,314.054 81.189,313.741 81.696 C 313.583 81.951,313.665 82.007,313.945 81.834 C 314.202 81.675,314.293 81.332,314.147 81.072 C 313.280 79.534,310.470 77.271,310.904 78.461 M59.731 81.800 C 59.733 83.340,59.805 83.921,59.892 83.091 C 59.979 82.261,59.977 81.001,59.889 80.291 C 59.800 79.581,59.729 80.260,59.731 81.800 M321.694 89.317 C 322.075 89.626,322.270 89.996,322.127 90.140 C 321.984 90.283,322.077 90.400,322.333 90.400 C 323.120 90.400,322.852 89.653,321.900 89.192 C 321.092 88.801,321.071 88.814,321.694 89.317 M325.854 94.196 C 325.980 94.525,326.245 94.696,326.442 94.574 C 326.639 94.452,326.800 94.554,326.800 94.800 C 326.800 95.046,326.980 95.136,327.200 95.000 C 327.420 94.864,327.600 94.954,327.600 95.200 C 327.600 95.446,327.774 95.540,327.987 95.408 C 328.200 95.277,328.603 95.536,328.883 95.984 C 329.163 96.433,329.557 96.800,329.758 96.800 C 330.432 96.800,328.617 95.124,327.112 94.355 C 325.911 93.743,325.668 93.712,325.854 94.196 M330.094 97.717 C 330.475 98.026,330.670 98.396,330.527 98.540 C 330.384 98.683,330.477 98.800,330.733 98.800 C 331.520 98.800,331.252 98.053,330.300 97.592 C 329.492 97.201,329.471 97.214,330.094 97.717 M331.192 99.464 C 331.419 99.576,331.516 99.813,331.407 99.989 C 331.298 100.165,331.477 100.532,331.804 100.804 C 332.218 101.147,332.400 101.161,332.400 100.849 C 332.400 100.602,332.220 100.400,332.000 100.400 C 331.780 100.400,331.645 100.198,331.700 99.950 C 331.755 99.703,331.571 99.446,331.290 99.380 C 331.010 99.314,330.966 99.352,331.192 99.464 M334.254 102.596 C 334.380 102.925,334.645 103.096,334.842 102.974 C 335.039 102.852,335.200 102.954,335.200 103.200 C 335.200 103.446,335.361 103.548,335.558 103.426 C 335.755 103.304,336.024 103.485,336.155 103.828 C 336.287 104.170,336.563 104.346,336.770 104.219 C 337.131 103.995,337.781 104.682,337.794 105.300 C 337.797 105.465,337.935 105.600,338.100 105.600 C 338.265 105.600,338.521 105.600,338.670 105.600 C 339.268 105.600,336.902 103.472,335.512 102.759 C 334.314 102.145,334.068 102.113,334.254 102.596 M340.178 110.835 C 340.031 111.074,340.110 111.470,340.355 111.715 C 340.682 112.042,340.800 111.926,340.800 111.280 C 340.800 110.314,340.592 110.165,340.178 110.835 M340.406 114.876 C 340.410 116.653,340.527 117.222,340.800 116.800 C 341.311 116.010,341.311 112.916,340.800 112.600 C 340.549 112.445,340.402 113.294,340.406 114.876 M340.874 218.400 C 340.884 273.510,341.041 317.880,341.223 317.000 C 341.664 314.869,341.641 120.027,341.200 119.000 C 341.007 118.551,340.864 162.190,340.874 218.400 M340.692 322.642 C 340.531 322.802,340.405 323.308,340.412 323.767 C 340.423 324.536,340.456 324.545,340.840 323.885 C 341.288 323.116,341.173 322.160,340.692 322.642 M322.800 340.800 C 322.800 341.020,323.070 341.200,323.400 341.200 C 323.730 341.200,324.000 341.020,324.000 340.800 C 324.000 340.580,323.730 340.400,323.400 340.400 C 323.070 340.400,322.800 340.580,322.800 340.800 M308.489 341.423 C 308.000 341.765,307.605 342.260,307.612 342.523 C 307.619 342.785,307.795 342.709,308.003 342.353 C 308.300 341.843,309.135 341.690,311.932 341.634 C 317.406 341.523,318.746 340.876,313.589 340.834 C 310.382 340.808,309.166 340.949,308.489 341.423 M59.728 352.000 C 59.728 353.430,59.801 354.015,59.889 353.300 C 59.978 352.585,59.978 351.415,59.889 350.700 C 59.801 349.985,59.728 350.570,59.728 352.000 M307.328 352.000 C 307.328 353.430,307.401 354.015,307.489 353.300 C 307.578 352.585,307.578 351.415,307.489 350.700 C 307.401 349.985,307.328 350.570,307.328 352.000 M135.500 374.300 C 161.955 374.357,205.245 374.357,231.700 374.300 C 258.155 374.243,236.510 374.197,183.600 374.197 C 130.690 374.197,109.045 374.243,135.500 374.300 " stroke="none" fill="#58c8e4" fill-rule="evenodd"></path><path id="path8" d="M116.800 26.000 C 116.250 26.176,145.680 26.317,182.200 26.314 C 218.720 26.311,247.880 26.159,247.000 25.977 C 244.944 25.552,118.130 25.574,116.800 26.000 M109.600 26.400 C 109.600 26.620,109.870 26.800,110.200 26.800 C 110.530 26.800,110.800 26.620,110.800 26.400 C 110.800 26.180,110.530 26.000,110.200 26.000 C 109.870 26.000,109.600 26.180,109.600 26.400 M249.700 26.634 C 248.256 27.265,248.113 27.656,249.000 28.543 C 249.708 29.250,249.797 29.769,249.142 29.364 C 248.826 29.169,248.747 29.409,248.887 30.141 C 248.998 30.723,248.979 31.200,248.845 31.200 C 248.710 31.201,248.581 32.956,248.558 35.100 C 248.535 37.245,248.231 40.530,247.881 42.400 C 246.746 48.467,247.104 103.671,248.302 107.225 C 250.770 114.554,256.468 118.799,264.939 119.620 C 270.027 120.113,319.342 120.060,322.600 119.557 C 323.920 119.354,325.606 119.098,326.347 118.989 C 327.087 118.879,327.854 118.690,328.050 118.569 C 328.885 118.053,335.784 117.792,337.163 118.224 C 337.848 118.439,338.043 118.393,337.839 118.063 C 337.682 117.808,337.743 117.600,337.976 117.600 C 338.209 117.600,338.400 117.810,338.400 118.067 C 338.400 118.323,338.518 118.415,338.663 118.270 C 338.808 118.125,339.172 118.211,339.473 118.460 C 340.262 119.115,340.603 118.559,340.061 117.504 C 339.602 116.613,339.599 116.614,339.848 117.600 C 340.132 118.728,339.931 118.627,339.237 117.294 C 338.863 116.575,338.872 116.410,339.283 116.494 C 339.648 116.569,339.825 115.954,339.885 114.401 C 339.943 112.891,339.851 112.390,339.591 112.801 C 339.339 113.200,339.210 113.233,339.206 112.900 C 339.203 112.625,339.009 112.400,338.776 112.400 C 338.543 112.400,338.476 112.600,338.628 112.845 C 338.960 113.383,338.074 114.003,337.362 113.730 C 337.080 113.622,336.946 113.234,337.063 112.867 C 337.238 112.319,337.203 112.303,336.868 112.775 C 336.579 113.182,335.547 113.365,333.330 113.403 C 330.863 113.446,329.396 113.747,326.400 114.829 L 322.600 116.200 295.800 116.320 C 261.169 116.474,262.224 116.620,256.409 110.870 C 250.616 105.142,250.798 106.392,250.811 72.364 L 250.822 45.329 252.030 40.818 C 253.018 37.130,253.222 35.650,253.146 32.702 C 253.076 29.963,253.192 28.988,253.627 28.647 C 254.477 27.980,254.526 27.136,253.709 27.219 C 252.194 27.375,249.880 27.186,250.138 26.929 C 250.287 26.780,251.324 26.699,252.441 26.750 C 253.784 26.811,254.385 26.700,254.213 26.421 C 253.849 25.832,251.254 25.954,249.700 26.634 M255.520 26.880 C 255.893 27.253,256.107 27.253,256.480 26.880 C 256.853 26.507,256.747 26.400,256.000 26.400 C 255.253 26.400,255.147 26.507,255.520 26.880 M261.202 28.804 C 261.457 29.279,261.769 29.565,261.896 29.438 C 262.265 29.068,263.217 30.048,262.934 30.507 C 262.784 30.749,262.870 30.804,263.138 30.638 C 263.551 30.383,263.780 30.861,263.647 31.700 C 263.621 31.865,263.780 32.000,264.000 32.000 C 265.020 32.000,263.129 29.218,261.527 28.361 C 260.809 27.977,260.780 28.016,261.202 28.804 M271.708 39.237 C 272.098 39.464,272.312 39.818,272.185 40.025 C 272.057 40.231,272.143 40.400,272.376 40.400 C 272.609 40.400,272.800 40.256,272.800 40.080 C 272.800 39.615,271.910 38.798,271.420 38.812 C 271.189 38.819,271.319 39.010,271.708 39.237 M277.451 44.988 C 277.579 45.322,277.839 45.499,278.029 45.382 C 278.219 45.265,278.603 45.536,278.883 45.984 C 279.163 46.433,279.557 46.800,279.758 46.800 C 280.229 46.800,278.824 45.241,277.913 44.754 C 277.372 44.464,277.269 44.516,277.451 44.988 M92.400 46.024 C 92.400 46.477,92.580 46.736,92.800 46.600 C 93.020 46.464,93.200 46.093,93.200 45.776 C 93.200 45.459,93.020 45.200,92.800 45.200 C 92.580 45.200,92.400 45.571,92.400 46.024 M284.254 52.596 C 284.380 52.925,284.645 53.096,284.842 52.974 C 285.039 52.852,285.200 52.954,285.200 53.200 C 285.200 53.446,285.361 53.548,285.558 53.426 C 285.755 53.304,286.024 53.485,286.155 53.828 C 286.287 54.170,286.563 54.346,286.770 54.219 C 287.131 53.995,287.781 54.682,287.794 55.300 C 287.797 55.465,287.935 55.600,288.100 55.600 C 288.265 55.600,288.521 55.600,288.670 55.600 C 289.268 55.600,286.902 53.472,285.512 52.759 C 284.314 52.145,284.068 52.113,284.254 52.596 M81.900 59.882 C 82.395 59.978,83.205 59.978,83.700 59.882 C 84.195 59.787,83.790 59.709,82.800 59.709 C 81.810 59.709,81.405 59.787,81.900 59.882 M92.200 60.000 C 92.064 60.220,92.233 60.400,92.576 60.400 C 92.919 60.400,93.201 60.535,93.201 60.700 C 93.202 60.865,93.754 61.360,94.428 61.800 C 95.101 62.240,96.267 63.637,97.017 64.905 C 99.814 69.631,99.600 59.012,99.603 193.258 C 99.607 318.880,99.620 319.913,101.279 323.518 C 102.483 326.136,107.845 331.390,110.599 332.651 C 114.230 334.313,119.509 334.410,211.600 334.508 L 298.200 334.600 300.783 335.921 C 302.204 336.647,303.919 337.862,304.593 338.621 C 305.268 339.379,306.051 340.000,306.334 340.000 C 306.616 340.000,306.749 340.160,306.628 340.355 C 306.507 340.550,306.677 340.932,307.004 341.204 C 307.332 341.476,307.615 341.631,307.633 341.549 C 308.012 339.856,307.762 339.269,305.847 337.365 C 304.721 336.246,303.461 334.853,303.047 334.269 C 301.921 332.683,298.403 331.182,295.270 330.952 C 293.802 330.845,253.540 330.710,205.800 330.653 C 116.069 330.546,116.595 330.555,113.615 329.004 C 112.631 328.492,105.954 321.993,105.181 320.795 C 103.296 317.874,103.416 325.522,103.193 193.400 C 103.080 125.860,102.869 70.217,102.726 69.749 C 101.729 66.500,100.151 64.240,97.921 62.869 C 97.107 62.369,96.341 61.645,96.219 61.260 C 95.869 60.158,92.714 59.169,92.200 60.000 M310.904 78.461 C 311.012 78.758,311.290 78.959,311.522 78.909 C 312.134 78.778,314.054 81.189,313.741 81.696 C 313.583 81.951,313.665 82.007,313.945 81.834 C 314.202 81.675,314.293 81.332,314.147 81.072 C 313.280 79.534,310.470 77.271,310.904 78.461 M59.731 81.800 C 59.733 83.340,59.805 83.921,59.892 83.091 C 59.979 82.261,59.977 81.001,59.889 80.291 C 59.800 79.581,59.729 80.260,59.731 81.800 M321.694 89.317 C 322.075 89.626,322.270 89.996,322.127 90.140 C 321.984 90.283,322.077 90.400,322.333 90.400 C 323.120 90.400,322.852 89.653,321.900 89.192 C 321.092 88.801,321.071 88.814,321.694 89.317 M325.854 94.196 C 325.980 94.525,326.245 94.696,326.442 94.574 C 326.639 94.452,326.800 94.554,326.800 94.800 C 326.800 95.046,326.980 95.136,327.200 95.000 C 327.420 94.864,327.600 94.954,327.600 95.200 C 327.600 95.446,327.774 95.540,327.987 95.408 C 328.200 95.277,328.603 95.536,328.883 95.984 C 329.163 96.433,329.557 96.800,329.758 96.800 C 330.432 96.800,328.617 95.124,327.112 94.355 C 325.911 93.743,325.668 93.712,325.854 94.196 M330.094 97.717 C 330.475 98.026,330.670 98.396,330.527 98.540 C 330.384 98.683,330.477 98.800,330.733 98.800 C 331.520 98.800,331.252 98.053,330.300 97.592 C 329.492 97.201,329.471 97.214,330.094 97.717 M331.192 99.464 C 331.419 99.576,331.516 99.813,331.407 99.989 C 331.298 100.165,331.477 100.532,331.804 100.804 C 332.218 101.147,332.400 101.161,332.400 100.849 C 332.400 100.602,332.220 100.400,332.000 100.400 C 331.780 100.400,331.645 100.198,331.700 99.950 C 331.755 99.703,331.571 99.446,331.290 99.380 C 331.010 99.314,330.966 99.352,331.192 99.464 M334.254 102.596 C 334.380 102.925,334.645 103.096,334.842 102.974 C 335.039 102.852,335.200 102.954,335.200 103.200 C 335.200 103.446,335.361 103.548,335.558 103.426 C 335.755 103.304,336.024 103.485,336.155 103.828 C 336.287 104.170,336.563 104.346,336.770 104.219 C 337.131 103.995,337.781 104.682,337.794 105.300 C 337.797 105.465,337.935 105.600,338.100 105.600 C 338.265 105.600,338.521 105.600,338.670 105.600 C 339.268 105.600,336.902 103.472,335.512 102.759 C 334.314 102.145,334.068 102.113,334.254 102.596 M340.178 110.835 C 340.031 111.074,340.110 111.470,340.355 111.715 C 340.682 112.042,340.800 111.926,340.800 111.280 C 340.800 110.314,340.592 110.165,340.178 110.835 M340.406 114.876 C 340.410 116.653,340.527 117.222,340.800 116.800 C 341.311 116.010,341.311 112.916,340.800 112.600 C 340.549 112.445,340.402 113.294,340.406 114.876 M340.874 218.400 C 340.884 273.510,341.041 317.880,341.223 317.000 C 341.664 314.869,341.641 120.027,341.200 119.000 C 341.007 118.551,340.864 162.190,340.874 218.400 M340.692 322.642 C 340.531 322.802,340.405 323.308,340.412 323.767 C 340.423 324.536,340.456 324.545,340.840 323.885 C 341.288 323.116,341.173 322.160,340.692 322.642 M322.800 340.800 C 322.800 341.020,323.070 341.200,323.400 341.200 C 323.730 341.200,324.000 341.020,324.000 340.800 C 324.000 340.580,323.730 340.400,323.400 340.400 C 323.070 340.400,322.800 340.580,322.800 340.800 M308.489 341.423 C 308.000 341.765,307.605 342.260,307.612 342.523 C 307.619 342.785,307.795 342.709,308.003 342.353 C 308.300 341.843,309.135 341.690,311.932 341.634 C 317.406 341.523,318.746 340.876,313.589 340.834 C 310.382 340.808,309.166 340.949,308.489 341.423 M59.728 352.000 C 59.728 353.430,59.801 354.015,59.889 353.300 C 59.978 352.585,59.978 351.415,59.889 350.700 C 59.801 349.985,59.728 350.570,59.728 352.000 M307.328 352.000 C 307.328 353.430,307.401 354.015,307.489 353.300 C 307.578 352.585,307.578 351.415,307.489 350.700 C 307.401 349.985,307.328 350.570,307.328 352.000 M135.500 374.300 C 161.955 374.357,205.245 374.357,231.700 374.300 C 258.155 374.243,236.510 374.197,183.600 374.197 C 130.690 374.197,109.045 374.243,135.500 374.300 " stroke="none" fill="#58c8e4" fill-rule="evenodd"></path></g></svg>