<svg id="icons" xmlns="http://www.w3.org/2000/svg" viewBox="0 0 128 128"><defs><style>.cls-1{fill:#92be00;}.cls-2{fill:#303442;opacity:0.08;}.cls-3{fill:none;stroke:#303442;stroke-linecap:round;stroke-linejoin:round;stroke-width:4px;}</style></defs><title>refresh</title><path class="cls-1" d="M102.06,59.52a4.99364,4.99364,0,0,1,4.93,5.06A43.15606,43.15606,0,0,1,64,107,42.85044,42.85044,0,0,1,34.4,95.19c-.03-.03-.05-.06-.08-.09l-5.94,5.94a.89733.89733,0,0,1-1.51-.44L21.19,76.01a.89944.89944,0,0,1,1.08-1.08l24.59,5.68a.89733.89733,0,0,1,.44,1.51l-5.91,5.91A32.79168,32.79168,0,0,0,64,97,33.10742,33.10742,0,0,0,96.99,64.45a5.00679,5.00679,0,0,1,5-4.93Z"/><path class="cls-2" d="M64,102A42.85027,42.85027,0,0,1,34.4,90.18994c-.03-.03-.05-.05994-.08-.09L28.38,96.04A.89733.89733,0,0,1,26.87,95.6L22.09143,74.9126A.89564.89564,0,0,0,21.19,76.01l5.68,24.59a.89733.89733,0,0,0,1.51.44006L34.32,95.1c.03.03.05.05993.08.09a42.99525,42.99525,0,0,0,72.59-30.61,4.92339,4.92339,0,0,0-.20941-1.42176A43.17139,43.17139,0,0,1,64,102Z"/><path class="cls-1" d="M106.81,51.99a.89944.89944,0,0,1-1.08,1.08L81.14,47.39a.89733.89733,0,0,1-.44-1.51l5.91-5.91A32.79168,32.79168,0,0,0,64,31,33.10742,33.10742,0,0,0,31.01,63.55a5.00679,5.00679,0,0,1-5,4.93h-.07a4.99364,4.99364,0,0,1-4.93-5.06A43.15606,43.15606,0,0,1,64,21,42.85044,42.85044,0,0,1,93.6,32.81c.03.03.05.06.08.09l5.94-5.94a.89733.89733,0,0,1,1.51.44Z"/><path class="cls-3" d="M102.06,59.52h-.07a5.00679,5.00679,0,0,0-5,4.93A33.10742,33.10742,0,0,1,64,97a32.79168,32.79168,0,0,1-22.61-8.97l5.91-5.91a.89733.89733,0,0,0-.44-1.51L22.27,74.93a.89944.89944,0,0,0-1.08,1.08l5.68,24.59a.89733.89733,0,0,0,1.51.44l5.94-5.94c.03.03.05.06.08.09a42.99531,42.99531,0,0,0,72.59-30.61A4.99364,4.99364,0,0,0,102.06,59.52Z"/><path class="cls-3" d="M106.81,51.99,101.13,27.4a.89733.89733,0,0,0-1.51-.44L93.68,32.9c-.03-.03-.05-.06-.08-.09A42.99531,42.99531,0,0,0,21.01,63.42a4.99364,4.99364,0,0,0,4.93,5.06h.07a5.00679,5.00679,0,0,0,5-4.93A33.10742,33.10742,0,0,1,64,31a32.79168,32.79168,0,0,1,22.61,8.97L80.7,45.88a.89733.89733,0,0,0,.44,1.51l24.59,5.68A.89944.89944,0,0,0,106.81,51.99Z"/></svg>