<svg xmlns="http://www.w3.org/2000/svg" id="Layer_1" x="0" y="0" version="1.1" viewBox="0 0 100 100" xml:space="preserve"><path fill="#666766" stroke="#333" stroke-miterlimit="10" stroke-width="3.5" d="M78.857 78.057h-1.023a6.69 6.69 0 0 1-6.69-6.69V57.366a6.69 6.69 0 0 1 6.69-6.69h1.023a6.69 6.69 0 0 1 6.69 6.69v14.002a6.69 6.69 0 0 1-6.69 6.689z"/><path stroke="#000" stroke-linecap="round" stroke-linejoin="round" stroke-miterlimit="10" stroke-width="3.5" d="M82.344 51.683c.426.88.672 1.864.672 2.907v14.002a6.69 6.69 0 0 1-6.69 6.69h-1.023a6.662 6.662 0 0 1-2.89-.663c-.161-.035-.326-.06-.482-.105a6.687 6.687 0 0 0 5.903 3.544h1.023a6.69 6.69 0 0 0 6.69-6.69V57.366c0-2.412-1.288-4.507-3.203-5.683z" opacity=".2"/><path fill="none" stroke="#333" stroke-miterlimit="10" stroke-width="3.5" d="M50 17.903v31.733"/><circle cx="50" cy="17.903" r="7.903" fill="#e15c64" stroke="#333" stroke-miterlimit="10" stroke-width="3.5"/><path stroke="#000" stroke-linejoin="round" stroke-miterlimit="10" stroke-width="3.5" d="M56.537 13.462a15.457 15.457 0 0 1-1.259 4.328c-1.863 4.104-5.151 6.87-8.323 7.406a7.903 7.903 0 0 0 9.582-11.734z" opacity=".2"/><path fill="#666766" stroke="#333" stroke-miterlimit="10" stroke-width="3.5" d="M21.143 78.057h1.023a6.69 6.69 0 0 0 6.69-6.69V57.366a6.69 6.69 0 0 0-6.69-6.69h-1.023a6.69 6.69 0 0 0-6.69 6.69v14.002a6.69 6.69 0 0 0 6.69 6.689z"/><path stroke="#000" stroke-linejoin="round" stroke-miterlimit="10" stroke-width="3.5" d="M24.974 51.3c.048.322.08.649.08.984v14.002a6.69 6.69 0 0 1-6.69 6.69h-1.023a6.661 6.661 0 0 1-2.808-.624c.477 3.227 3.25 5.706 6.609 5.706h1.023a6.69 6.69 0 0 0 6.69-6.69V57.366a6.682 6.682 0 0 0-3.881-6.066z" opacity=".2"/><path fill="#e0e0e0" stroke="#333" stroke-miterlimit="10" stroke-width="3.5" d="M71.646 90H28.354a5.133 5.133 0 0 1-5.133-5.133V41.399a5.133 5.133 0 0 1 5.133-5.133h43.293a5.133 5.133 0 0 1 5.133 5.133v43.468A5.134 5.134 0 0 1 71.646 90z"/><path stroke="#000" stroke-miterlimit="10" stroke-width="3.5" d="M71.646 36.266h-1.533V78.43a5.133 5.133 0 0 1-5.133 5.133H23.22v1.304A5.133 5.133 0 0 0 28.353 90h43.293a5.133 5.133 0 0 0 5.133-5.133V41.399a5.133 5.133 0 0 0-5.133-5.133z" opacity=".2"/><path fill="#fff" stroke="#333" stroke-miterlimit="10" stroke-width="3.5" d="M37.944 69.948a6.057 6.057 0 0 0-6.057 6.057v0a6.057 6.057 0 0 0 6.057 6.057h1.658V69.948h-1.658z"/><path fill="#fff" stroke="#333" stroke-miterlimit="10" stroke-width="3.5" d="M39.602 69.948h6.932v12.115h-6.932z"/><path fill="#fff" stroke="#333" stroke-miterlimit="10" stroke-width="3.5" d="M46.534 69.948h6.932v12.115h-6.932z"/><path fill="#fff" stroke="#333" stroke-miterlimit="10" stroke-width="3.5" d="M62.056 69.948h-1.658v12.115h1.658a6.057 6.057 0 0 0 6.057-6.057v0a6.057 6.057 0 0 0-6.057-6.058z"/><path fill="#fff" stroke="#333" stroke-miterlimit="10" stroke-width="3.5" d="M53.466 69.948h6.932v12.115h-6.932z"/><circle cx="38.829" cy="53.343" r="5.942" fill="#acbd81" stroke="#333" stroke-miterlimit="10" stroke-width="3.5"/><circle cx="61.171" cy="53.343" r="5.942" fill="#acbd81" stroke="#333" stroke-miterlimit="10" stroke-width="3.5"/><path fill="none" stroke="#fff" stroke-linecap="round" stroke-miterlimit="10" stroke-width="3.5" d="M28.356 54.625v.925"/><path fill="none" stroke="#fff" stroke-linecap="round" stroke-miterlimit="10" stroke-width="3.5" d="M28.356 42.375v7.261"/><path stroke="#000" stroke-linecap="round" stroke-linejoin="round" stroke-miterlimit="10" stroke-width="3.5" d="M32.169 77.833a6.058 6.058 0 0 0 5.775 4.229H62.056c2.708 0 5-1.778 5.775-4.229H32.169z" opacity=".2"/><metadata xmlns:d="https://loading.io/stock/"><d:name>robot</d:name><d:tags>robot,chatbot,android,turing test,cyborg,ai,artificial intelligence,machine learning</d:tags><d:license>by</d:license><d:slug>5x35n5</d:slug></metadata></svg>