<svg xmlns="http://www.w3.org/2000/svg" viewBox="0 0 48 48"><defs><style>.cls-1{fill:#f7931e}.cls-2{fill:#79a1e8}.cls-3{fill:#f9d015}.cls-4{fill:#4b31aa}</style></defs><title>waiting</title><g id="Guidelines"><path d="M24,41A17,17,0,0,1,24,7a1,1,0,0,1,0,2A15,15,0,1,0,39,24a1,1,0,0,1,2,0A17,17,0,0,1,24,41Z" class="cls-1"/><path d="M24,9a1,1,0,0,1-1-1,1,1,0,0,1,.08-.38,1.15,1.15,0,0,1,.21-.33A1,1,0,0,1,24.2,7a.64.64,0,0,1,.18.06.76.76,0,0,1,.18.09l.15.12a1.15,1.15,0,0,1,.21.33.94.94,0,0,1,0,.76,1.15,1.15,0,0,1-.21.33l-.15.12a.76.76,0,0,1-.18.09A.64.64,0,0,1,24.2,9Z" class="cls-1"/><path d="M37.86,18.26A1,1,0,0,1,38.4,17h0a1,1,0,0,1,1.31.54h0a1,1,0,0,1-.54,1.31h0a1.07,1.07,0,0,1-.39.07h0A1,1,0,0,1,37.86,18.26Zm-3.25-4.87a1,1,0,0,1,0-1.41h0A1,1,0,0,1,36,12h0a1,1,0,0,1,0,1.41h0a1,1,0,0,1-.71.3h0A1,1,0,0,1,34.61,13.39Zm-4.87-3.25h0a1,1,0,0,1-.54-1.31h0a1,1,0,0,1,1.31-.54h0a1,1,0,0,1,.54,1.31h0a1,1,0,0,1-.92.62h0A1.09,1.09,0,0,1,29.74,10.14Z" class="cls-1"/><path d="M40,25a1,1,0,0,1-.71-.29,1,1,0,0,1,0-1.42l.15-.12a.76.76,0,0,1,.18-.09L39.8,23a1,1,0,0,1,.39,0,.6.6,0,0,1,.19.06.56.56,0,0,1,.17.09l.16.12a1,1,0,0,1,0,1.42A1,1,0,0,1,40,25Z" class="cls-1"/><path d="M22.13,12.13a1,1,0,0,1-.7-.29,1,1,0,0,1,0-1.41l2.29-2.3L21.43,5.84a1,1,0,1,1,1.41-1.41l3,3a1,1,0,0,1,0,1.41l-3,3A1,1,0,0,1,22.13,12.13Z" class="cls-1"/><path d="M25,24a1,1,0,0,0,.55.89A6.21,6.21,0,0,1,29,30.47V31H19v-.53a6.21,6.21,0,0,1,3.45-5.58,1,1,0,0,0,0-1.78A6.21,6.21,0,0,1,19,17.53V17H29v.53a6.21,6.21,0,0,1-3.45,5.58A1,1,0,0,0,25,24Z" class="cls-2"/><path d="M28.78,31.38l-4-5a1,1,0,0,0-1.56,0l-4,5a1,1,0,0,0-.12,1.05A1,1,0,0,0,20,33h8a1,1,0,0,0,.9-.57A1,1,0,0,0,28.78,31.38ZM22.08,31,24,28.6,25.92,31Z" class="cls-1"/><polygon points="25.92 31 22.08 31 24 28.6 25.92 31" class="cls-3"/><path d="M29,21H19a1,1,0,0,1,0-2H29a1,1,0,0,1,0,2Z" class="cls-3"/><path d="M32,17H16a1,1,0,0,1,0-2H32a1,1,0,0,1,0,2Z" class="cls-4"/><path d="M32,33H16a1,1,0,0,1,0-2H32a1,1,0,0,1,0,2Z" class="cls-4"/><path d="M31,17.53V16a1,1,0,0,0-1-1H18a1,1,0,0,0-1,1v1.53A8.18,8.18,0,0,0,20.14,24,8.18,8.18,0,0,0,17,30.47V32a1,1,0,0,0,1,1H30a1,1,0,0,0,1-1V30.47A8.18,8.18,0,0,0,27.86,24,8.18,8.18,0,0,0,31,17.53Zm-5.45,7.36A6.21,6.21,0,0,1,29,30.47V31H19v-.53a6.21,6.21,0,0,1,3.45-5.58,1,1,0,0,0,0-1.78A6.21,6.21,0,0,1,19,17.53V17H29v.53a6.21,6.21,0,0,1-3.45,5.58,1,1,0,0,0,0,1.78Z" class="cls-4"/></g></svg>